<?xml version="1.0" encoding="utf-8"?>
<!-- Generator: Adobe Illustrator 24.3.0, SVG Export Plug-In . SVG Version: 6.00 Build 0)  -->
<svg version="1.1" id="Layer_1" xmlns="http://www.w3.org/2000/svg" xmlns:xlink="http://www.w3.org/1999/xlink" x="0px" y="0px"
	 viewBox="0 0 180 252" style="enable-background:new 0 0 180 252;" xml:space="preserve">
<style type="text/css">
	.st0{display:none;}
	.st1{display:inline;stroke:#000000;stroke-width:0.8739;stroke-miterlimit:10;}
	.st2{fill:#FFFFFF;}
	.st3{fill:#FFFFFF;stroke:#000000;stroke-width:0.0446;stroke-miterlimit:10;}
	.st4{display:none;fill:#080405;}
	.st5{fill:none;}
	.st6{fill:#F68C1F;}
	.st7{font-family:'KanaSans-Bold';}
	.st8{font-size:30px;}
	.st9{letter-spacing:-1;}
	.st10{fill:none;stroke:#F68C1F;stroke-width:1.756;stroke-miterlimit:10;}
	.st11{display:none;fill:#040202;}
	.st12{fill:#FFFFFF;stroke:#231F20;stroke-width:0.36;stroke-miterlimit:10;}
	.st13{fill:url(#SVGID_1_);stroke:#000000;stroke-width:1.4619;stroke-miterlimit:10;}
	.st14{fill:url(#SVGID_2_);stroke:#000000;stroke-width:1.4619;stroke-miterlimit:10;}
	.st15{fill:url(#SVGID_3_);stroke:#000000;stroke-miterlimit:10;}
	.st16{fill:url(#SVGID_4_);stroke:#000000;stroke-width:1.4619;stroke-miterlimit:10;}
	.st17{fill:url(#SVGID_5_);stroke:#000000;stroke-width:1.4619;stroke-miterlimit:10;}
	.st18{fill:url(#SVGID_6_);stroke:#000000;stroke-miterlimit:10;}
	.st19{fill:url(#SVGID_7_);stroke:#000000;stroke-width:1.4619;stroke-miterlimit:10;}
	.st20{fill:#E2E3E4;stroke:#231F20;stroke-width:1.4619;stroke-miterlimit:10;}
	.st21{fill:#040202;}
	.st22{fill:#F68C21;}
	.st23{fill:#080505;}
</style>
<g class="st0">
	<path class="st1" d="M32.79,125.55c0-33.29,0-66.58,0-99.87c0-0.43-0.02-0.86,0.02-1.29c0.06-0.66,0.34-1.06,0.87-1.07
		c0.19,0,0.37,0,0.56,0c36.97,0,73.93,0,110.9,0c1.09,0,1.35,0.34,1.35,1.78c0,66.98,0,133.96,0,200.94c0,1.48-0.27,1.83-1.4,1.83
		c-36.97,0-73.93,0-110.9,0c-1.17,0-1.39-0.3-1.39-1.8C32.79,192.56,32.79,159.05,32.79,125.55z M33.67,24.45
		c0,67.48,0,134.87,0,202.25c37.33,0,74.61,0,111.9,0c0-67.45,0-134.84,0-202.25C108.25,24.45,70.99,24.45,33.67,24.45z"/>
</g>
<path class="st2" d="M168.11,252.33h-156c-6.6,0-12-5.4-12-12v-228c0-6.6,5.4-12,12-12h156c6.6,0,12,5.4,12,12v228
	C180.11,246.93,174.71,252.33,168.11,252.33z"/>
<path class="st3" d="M167.78,251.56H12.22c-6.6,0-12-5.4-12-12V12.44c0-6.6,5.4-12,12-12h155.56c6.6,0,12,5.4,12,12v227.11
	C179.78,246.16,174.38,251.56,167.78,251.56z"/>
<g>
	<g>
		<path class="st0" d="M59.91,64.6c2.07-1.32,3.87-2.24,5.18-2.85c0.72-0.34,0.33-0.14,4.91-2.07c0.67-0.28,1.58-0.65,2.81-1.1
			c0.43-0.16,0.88-0.31,1.41-0.48c0.47-0.15,3.86-1.22,7.83-1.49c2.3-0.16,3.15,0.07,3.82,0.41c0.87,0.46,1.21,1.03,2.32,1.26
			c0.75,0.15,1.42,0.07,2-0.01c0.91-0.12,1.57-0.36,1.91-0.5c0.6-0.24,1.17-0.47,1.65-1.01c0.27-0.3,0.6-0.66,0.59-1.15
			c0-0.12-0.03-0.56-1.03-1.5c-0.94-0.89-1.51-1.23-2.1-1.55c-0.59-0.32-1.51-0.74-2.73-1c1.53-0.47,2.61-0.22,3.07-0.08
			c0.63,0.19,1.16,0.5,1.98,1c0.7,0.43,1.05,0.64,1.39,0.95c0.44,0.39,1.33,1.2,1.41,2.25c0.09,1.19-0.9,2.05-1.5,2.57
			c-0.9,0.78-1.86,1.09-2.93,1.43c-0.43,0.14-1.02,0.26-2.21,0.5c-1.17,0.24-1.55,0.27-1.97,0.12c-0.42-0.15-0.47-0.3-1.08-0.7
			c-0.55-0.36-1.03-0.51-1.57-0.69c-1.01-0.32-2.07-0.35-3.42-0.22c-1.2,0.11-2.86,0.39-5.51,1.23c-0.87,0.27-2.07,0.72-4.46,1.62
			c-1.11,0.42-2.08,0.78-3.38,1.3c-0.98,0.39-1,0.41-2.74,1.12c-0.75,0.3-1.27,0.51-2.03,0.84c-1.84,0.78-2.32,1.06-2.64,1.57
			c-0.29,0.45-0.34,0.91-0.35,1.21c-0.46-0.21-1.07-0.55-1.61-1.13c-0.62-0.66-0.86-1.3-1.02-1.71c-0.25-0.65-0.31-1.19-0.35-1.58
			c-0.01-0.09-0.05-0.43-0.04-0.81c0-0.12,0.01-0.24,0.02-0.37c0.04-0.51,0.14-0.88,0.24-1.28c0.1-0.37,0.27-1.01,0.65-1.79
			c0.34-0.7,0.69-1.19,0.96-1.56c0.38-0.53,0.94-1.21,1.71-1.94c0,0,0,0,0,0c0,0,0.08-0.08,0.16-0.15c2.1-1.89,4.12-3.13,4.12-3.13
			c0.33-0.2,1.82-1.11,3.94-2.02c2.04-0.88,4.43-1.66,5.24-1.93c0.62-0.2,0.86-0.27,1.35-0.46c1.41-0.55,2.35-0.92,3.48-1.68
			c2.65-1.77,3.03-1.76,3.77-1.82c1.16-0.09,2.18,0.34,2.85,0.71c-1.14-0.07-1.92,0.15-2.46,0.42c-0.32,0.16-0.34,0.23-1.2,0.84
			c-0.53,0.37-1.15,0.81-1.94,1.28c-0.44,0.26-1.18,0.69-2.19,1.11c-0.34,0.14-0.73,0.29-1.51,0.58c-0.51,0.19-0.93,0.34-1.23,0.45
			c-0.87,0.32-1.75,0.64-2.62,0.95c-0.66,0.25-1.54,0.6-2.55,1.08c-1.12,0.53-3.01,1.46-5.08,3.06c-0.98,0.76-1.97,1.53-2.94,2.82
			c-0.34,0.45-1.03,1.44-1.57,2.85C60.08,61.97,59.92,63.46,59.91,64.6z"/>
		<path class="st0" d="M86.98,53.65c0.06,0.13,0.13,0.35,0.11,0.62c-0.06,0.62-0.61,0.96-0.69,1.02c0.31,0.02,0.57-0.02,0.74-0.06
			c0.34-0.08,0.57-0.2,0.69-0.27c0.19-0.11,0.3-0.17,0.36-0.3c0.14-0.25-0.01-0.54-0.05-0.61c0.05-0.01,0.38-0.05,0.64,0.16
			c0.25,0.19,0.27,0.46,0.28,0.54c0.02,0.26-0.09,0.46-0.13,0.53c-0.27,0.45-0.87,0.58-1.37,0.68c-0.65,0.14-1.11,0.24-1.53-0.02
			c-0.29-0.18-0.5-0.49-0.53-0.8C85.44,54.54,86.03,53.88,86.98,53.65z"/>
		<path class="st0" d="M78.2,54.92c0.29-0.56,0.84-0.9,1.37-0.87c0.09,0.01,0.56,0.05,0.84,0.4c0.04,0.06,0.17,0.21,0.18,0.43
			c0.01,0.32-0.21,0.63-0.57,0.81c-0.01-0.08-0.04-0.49-0.36-0.67c-0.38-0.22-1.09-0.05-1.51,0.57
			C78.17,55.37,78.19,55.15,78.2,54.92z"/>
		<path class="st0" d="M85.79,50.14c0.27,0.38,0.54,0.76,0.81,1.14c-0.2,0.11-0.4,0.22-0.6,0.33c-0.24-0.35-0.47-0.7-0.71-1.04
			C85.46,50.42,85.63,50.28,85.79,50.14z"/>
		<path class="st0" d="M84.78,50.83c-1.9-0.09-3.73-0.18-5.41-0.26C80.89,49.58,83.51,49.64,84.78,50.83z"/>
		<path class="st0" d="M81.81,48.66c0.52,0.18,1.05,0.36,1.58,0.55c0.31,0.11,0.62,0.21,0.93,0.32c0.2,0.06,0.59,0.2,0.9,0.55
			c0.13,0.14,0.21,0.28,0.27,0.4c-0.39-0.18-0.82-0.35-1.3-0.51c-0.27-0.09-0.52-0.17-0.77-0.24c-0.26-0.09-0.63-0.24-1-0.51
			C82.15,49.03,81.95,48.83,81.81,48.66z"/>
	</g>
</g>
<g>
	<g>
		<path class="st0" d="M119.07,185.05c-2.07,1.32-3.87,2.24-5.18,2.85c-0.72,0.34-0.33,0.14-4.91,2.07
			c-0.67,0.28-1.58,0.65-2.81,1.1c-0.43,0.16-0.88,0.31-1.41,0.48c-0.47,0.15-3.86,1.22-7.83,1.49c-2.3,0.16-3.15-0.07-3.82-0.41
			c-0.87-0.46-1.21-1.03-2.32-1.26c-0.75-0.15-1.42-0.07-2,0.01c-0.91,0.12-1.57,0.36-1.91,0.5c-0.6,0.24-1.17,0.47-1.65,1.01
			c-0.27,0.3-0.6,0.66-0.59,1.15c0,0.12,0.03,0.56,1.03,1.5c0.94,0.89,1.51,1.23,2.1,1.55c0.59,0.32,1.51,0.74,2.73,1
			c-1.53,0.47-2.61,0.22-3.07,0.08c-0.63-0.19-1.16-0.5-1.98-1c-0.7-0.43-1.05-0.64-1.39-0.95c-0.44-0.39-1.33-1.2-1.41-2.25
			c-0.09-1.19,0.9-2.05,1.5-2.57c0.9-0.78,1.86-1.09,2.93-1.43c0.43-0.14,1.02-0.26,2.21-0.5c1.17-0.24,1.55-0.27,1.97-0.12
			c0.42,0.15,0.47,0.3,1.08,0.7c0.55,0.36,1.03,0.51,1.57,0.69c1.01,0.32,2.07,0.35,3.42,0.22c1.2-0.11,2.86-0.39,5.51-1.23
			c0.87-0.27,2.07-0.72,4.46-1.62c1.11-0.42,2.08-0.78,3.38-1.3c0.98-0.39,1-0.41,2.74-1.12c0.75-0.3,1.27-0.51,2.03-0.84
			c1.84-0.78,2.32-1.06,2.64-1.57c0.29-0.45,0.34-0.91,0.35-1.21c0.46,0.21,1.07,0.55,1.61,1.13c0.62,0.66,0.86,1.3,1.02,1.71
			c0.25,0.65,0.31,1.19,0.35,1.58c0.01,0.09,0.05,0.43,0.04,0.81c0,0.12-0.01,0.24-0.02,0.37c-0.04,0.51-0.14,0.88-0.24,1.28
			c-0.1,0.37-0.27,1.01-0.65,1.79c-0.34,0.7-0.69,1.19-0.96,1.56c-0.38,0.53-0.94,1.21-1.71,1.94c0,0,0,0,0,0
			c0,0-0.08,0.08-0.16,0.15c-2.1,1.89-4.12,3.13-4.12,3.13c-0.33,0.2-1.82,1.11-3.94,2.02c-2.04,0.88-4.43,1.66-5.24,1.93
			c-0.62,0.2-0.86,0.27-1.35,0.46c-1.41,0.55-2.35,0.92-3.48,1.68c-2.65,1.77-3.03,1.76-3.77,1.82c-1.16,0.09-2.18-0.34-2.85-0.71
			c1.14,0.07,1.92-0.15,2.46-0.42c0.32-0.16,0.34-0.23,1.2-0.84c0.53-0.37,1.15-0.81,1.94-1.28c0.44-0.26,1.18-0.69,2.19-1.11
			c0.34-0.14,0.73-0.29,1.51-0.58c0.51-0.19,0.93-0.34,1.23-0.45c0.87-0.32,1.75-0.64,2.62-0.95c0.66-0.25,1.54-0.6,2.55-1.08
			c1.12-0.53,3.01-1.46,5.08-3.06c0.98-0.76,1.97-1.53,2.94-2.82c0.34-0.45,1.03-1.44,1.57-2.85
			C118.9,187.67,119.06,186.19,119.07,185.05z"/>
		<path class="st0" d="M92.01,195.99c-0.06-0.13-0.13-0.35-0.11-0.62c0.06-0.62,0.61-0.96,0.69-1.02c-0.31-0.02-0.57,0.02-0.74,0.06
			c-0.34,0.08-0.57,0.2-0.69,0.27c-0.19,0.11-0.3,0.17-0.36,0.3c-0.14,0.25,0.01,0.54,0.05,0.61c-0.05,0.01-0.38,0.05-0.64-0.16
			c-0.25-0.19-0.27-0.46-0.28-0.54c-0.02-0.26,0.09-0.46,0.13-0.53c0.27-0.45,0.87-0.58,1.37-0.68c0.65-0.14,1.11-0.24,1.53,0.02
			c0.29,0.18,0.5,0.49,0.53,0.8C93.54,195.1,92.96,195.77,92.01,195.99z"/>
		<path class="st0" d="M100.78,194.72c-0.29,0.56-0.84,0.9-1.37,0.87c-0.09-0.01-0.56-0.05-0.84-0.4c-0.04-0.06-0.17-0.21-0.18-0.43
			c-0.01-0.32,0.21-0.63,0.57-0.81c0.01,0.08,0.04,0.49,0.36,0.67c0.38,0.22,1.09,0.05,1.51-0.57
			C100.81,194.27,100.8,194.5,100.78,194.72z"/>
		<path class="st0" d="M93.19,199.5c-0.27-0.38-0.54-0.76-0.81-1.14c0.2-0.11,0.4-0.22,0.6-0.33c0.24,0.35,0.47,0.7,0.71,1.04
			C93.52,199.22,93.36,199.36,93.19,199.5z"/>
		<path class="st0" d="M94.2,198.81c1.9,0.09,3.73,0.18,5.41,0.26C98.09,200.06,95.47,200,94.2,198.81z"/>
		<path class="st0" d="M97.17,200.98c-0.52-0.18-1.05-0.36-1.58-0.55c-0.31-0.11-0.62-0.21-0.93-0.32c-0.2-0.06-0.59-0.2-0.9-0.55
			c-0.13-0.14-0.21-0.28-0.27-0.4c0.39,0.18,0.82,0.35,1.3,0.51c0.27,0.09,0.52,0.17,0.77,0.24c0.26,0.09,0.63,0.24,1,0.51
			C96.83,200.61,97.03,200.81,97.17,200.98z"/>
	</g>
</g>
<g>
	<g>
		<path class="st4" d="M159.12,195.16c0.31,0.21,0.57,0.36,0.77,0.46c0.11,0.05,0.05,0.02,0.73,0.33c0.1,0.05,0.23,0.1,0.41,0.18
			c0.06,0.03,0.13,0.05,0.21,0.08c0.07,0.02,0.57,0.2,1.16,0.24c0.34,0.03,0.47-0.01,0.56-0.07c0.13-0.07,0.18-0.17,0.34-0.2
			c0.11-0.02,0.21-0.01,0.3,0c0.13,0.02,0.23,0.06,0.28,0.08c0.09,0.04,0.17,0.08,0.24,0.16c0.04,0.05,0.09,0.11,0.09,0.19
			c0,0.02,0,0.09-0.15,0.24c-0.14,0.14-0.22,0.2-0.31,0.25c-0.09,0.05-0.22,0.12-0.4,0.16c0.23,0.08,0.39,0.04,0.45,0.01
			c0.09-0.03,0.17-0.08,0.29-0.16c0.1-0.07,0.16-0.1,0.21-0.15c0.06-0.06,0.2-0.19,0.21-0.36c0.01-0.19-0.13-0.33-0.22-0.41
			c-0.13-0.13-0.28-0.18-0.43-0.23c-0.06-0.02-0.15-0.04-0.33-0.08c-0.17-0.04-0.23-0.04-0.29-0.02c-0.06,0.02-0.07,0.05-0.16,0.11
			c-0.08,0.06-0.15,0.08-0.23,0.11c-0.15,0.05-0.31,0.06-0.51,0.04c-0.18-0.02-0.42-0.06-0.81-0.2c-0.13-0.04-0.31-0.12-0.66-0.26
			c-0.16-0.07-0.31-0.13-0.5-0.21c-0.14-0.06-0.15-0.07-0.41-0.18c-0.11-0.05-0.19-0.08-0.3-0.14c-0.27-0.13-0.34-0.17-0.39-0.25
			c-0.04-0.07-0.05-0.15-0.05-0.2c-0.07,0.03-0.16,0.09-0.24,0.18c-0.09,0.11-0.13,0.21-0.15,0.28c-0.04,0.11-0.05,0.19-0.05,0.25
			c0,0.02-0.01,0.07-0.01,0.13c0,0.02,0,0.04,0,0.06c0.01,0.08,0.02,0.14,0.04,0.21c0.01,0.06,0.04,0.16,0.1,0.29
			c0.05,0.11,0.1,0.19,0.14,0.25c0.06,0.09,0.14,0.2,0.25,0.31c0,0,0,0,0,0c0,0,0.01,0.01,0.02,0.02c0.31,0.3,0.61,0.51,0.61,0.51
			c0.05,0.03,0.27,0.18,0.58,0.33c0.3,0.14,0.66,0.27,0.77,0.31c0.09,0.03,0.13,0.04,0.2,0.07c0.21,0.09,0.35,0.15,0.52,0.27
			c0.39,0.29,0.45,0.28,0.56,0.29c0.17,0.01,0.32-0.05,0.42-0.11c-0.17,0.01-0.28-0.02-0.36-0.07c-0.05-0.03-0.05-0.04-0.18-0.14
			c-0.08-0.06-0.17-0.13-0.29-0.21c-0.07-0.04-0.17-0.11-0.32-0.18c-0.05-0.02-0.11-0.05-0.22-0.09c-0.08-0.03-0.14-0.06-0.18-0.07
			c-0.13-0.05-0.26-0.1-0.39-0.15c-0.1-0.04-0.23-0.1-0.38-0.18c-0.17-0.09-0.44-0.24-0.75-0.49c-0.15-0.12-0.29-0.25-0.43-0.46
			c-0.05-0.07-0.15-0.23-0.23-0.46C159.15,195.58,159.12,195.34,159.12,195.16z"/>
		<path class="st4" d="M163.12,196.92c0.01-0.02,0.02-0.06,0.02-0.1c-0.01-0.1-0.09-0.16-0.1-0.16c0.05,0,0.08,0,0.11,0.01
			c0.05,0.01,0.08,0.03,0.1,0.04c0.03,0.02,0.04,0.03,0.05,0.05c0.02,0.04,0,0.09-0.01,0.1c0.01,0,0.06,0.01,0.1-0.03
			c0.04-0.03,0.04-0.07,0.04-0.09c0-0.04-0.01-0.07-0.02-0.08c-0.04-0.07-0.13-0.09-0.2-0.11c-0.1-0.02-0.16-0.04-0.23,0
			c-0.04,0.03-0.07,0.08-0.08,0.13C162.9,196.78,162.98,196.89,163.12,196.92z"/>
		<path class="st4" d="M161.83,196.72c0.04,0.09,0.12,0.15,0.2,0.14c0.01,0,0.08-0.01,0.12-0.06c0.01-0.01,0.02-0.03,0.03-0.07
			c0-0.05-0.03-0.1-0.08-0.13c0,0.01-0.01,0.08-0.05,0.11c-0.06,0.04-0.16,0.01-0.22-0.09
			C161.82,196.64,161.82,196.68,161.83,196.72z"/>
		<path class="st4" d="M162.95,197.49c0.04-0.06,0.08-0.12,0.12-0.18c-0.03-0.02-0.06-0.04-0.09-0.05
			c-0.04,0.06-0.07,0.11-0.11,0.17C162.9,197.44,162.92,197.47,162.95,197.49z"/>
		<path class="st4" d="M162.8,197.38c-0.28,0.01-0.55,0.03-0.8,0.04C162.22,197.58,162.61,197.57,162.8,197.38z"/>
		<path class="st4" d="M162.36,197.73c0.08-0.03,0.16-0.06,0.23-0.09c0.05-0.02,0.09-0.03,0.14-0.05c0.03-0.01,0.09-0.03,0.13-0.09
			c0.02-0.02,0.03-0.05,0.04-0.06c-0.06,0.03-0.12,0.06-0.19,0.08c-0.04,0.01-0.08,0.03-0.11,0.04c-0.04,0.01-0.09,0.04-0.15,0.08
			C162.41,197.67,162.38,197.7,162.36,197.73z"/>
	</g>
</g>
<rect x="3.69" y="1.18" class="st5" width="21.44" height="37"/>
<text transform="matrix(1 0 0 1 3.6888 26.6462)" class="st6 st7 st8 st9">4</text>
<g>
	<path class="st10" d="M33.33,6.68h125.5c0,0,7.02-0.28,7.02,4.1s0,5.49,0,6.78c0,1.29-0.36,4.61-4.48,4.61
		c-4.12,0-5.44-2.37-5.44-4.89c0-2.22,2.26-3.98,4.22-3.98c2.36,0,7.9,0,7.9,0s2.22-0.18,3.56,1.13c1.72,1.68,2.01,2.71,2.01,4.26
		s0,165.66,0,165.66"/>
	<path class="st10" d="M145.84,246.01H20.33c0,0-7.02,0.28-7.02-4.1s0-5.49,0-6.78c0-1.29,0.36-4.61,4.48-4.61
		c4.12,0,5.44,2.37,5.44,4.89c0,2.22-2.26,3.98-4.22,3.98c-2.36,0-7.9,0-7.9,0s-2.22,0.18-3.56-1.13c-1.72-1.68-2.01-2.71-2.01-4.26
		s0-165.66,0-165.66"/>
</g>
<g>
	<g>
		<path class="st11" d="M159.9,205.65c0.32,0.22,0.59,0.37,0.79,0.48c0.11,0.06,0.05,0.02,0.75,0.35c0.1,0.05,0.24,0.11,0.43,0.18
			c0.07,0.03,0.14,0.05,0.21,0.08c0.07,0.03,0.59,0.2,1.2,0.25c0.35,0.03,0.48-0.01,0.58-0.07c0.13-0.08,0.19-0.17,0.36-0.21
			c0.11-0.03,0.22-0.01,0.31,0c0.14,0.02,0.24,0.06,0.29,0.08c0.09,0.04,0.18,0.08,0.25,0.17c0.04,0.05,0.09,0.11,0.09,0.19
			c0,0.02,0,0.09-0.16,0.25c-0.14,0.15-0.23,0.21-0.32,0.26c-0.09,0.05-0.23,0.12-0.42,0.17c0.23,0.08,0.4,0.04,0.47,0.01
			c0.1-0.03,0.18-0.08,0.3-0.17c0.11-0.07,0.16-0.11,0.21-0.16c0.07-0.07,0.2-0.2,0.22-0.38c0.01-0.2-0.14-0.34-0.23-0.43
			c-0.14-0.13-0.29-0.18-0.45-0.24c-0.07-0.02-0.16-0.04-0.34-0.08c-0.18-0.04-0.24-0.04-0.3-0.02c-0.06,0.02-0.07,0.05-0.17,0.12
			c-0.08,0.06-0.16,0.09-0.24,0.11c-0.15,0.05-0.32,0.06-0.52,0.04c-0.18-0.02-0.44-0.06-0.84-0.2c-0.13-0.05-0.32-0.12-0.68-0.27
			c-0.17-0.07-0.32-0.13-0.52-0.22c-0.15-0.07-0.15-0.07-0.42-0.19c-0.11-0.05-0.19-0.09-0.31-0.14c-0.28-0.13-0.35-0.18-0.4-0.26
			c-0.04-0.08-0.05-0.15-0.05-0.2c-0.07,0.03-0.16,0.09-0.25,0.19c-0.09,0.11-0.13,0.22-0.16,0.29c-0.04,0.11-0.05,0.2-0.05,0.26
			c0,0.02-0.01,0.07-0.01,0.14c0,0.02,0,0.04,0,0.06c0.01,0.09,0.02,0.15,0.04,0.21c0.01,0.06,0.04,0.17,0.1,0.3
			c0.05,0.12,0.11,0.2,0.15,0.26c0.06,0.09,0.14,0.2,0.26,0.32c0,0,0,0,0,0c0,0,0.01,0.01,0.02,0.03c0.32,0.31,0.63,0.52,0.63,0.52
			c0.05,0.03,0.28,0.19,0.6,0.34c0.31,0.15,0.68,0.28,0.8,0.32c0.09,0.03,0.13,0.04,0.21,0.08c0.22,0.09,0.36,0.15,0.53,0.28
			c0.4,0.3,0.46,0.29,0.58,0.3c0.18,0.01,0.33-0.06,0.44-0.12c-0.17,0.01-0.29-0.02-0.38-0.07c-0.05-0.03-0.05-0.04-0.18-0.14
			c-0.08-0.06-0.18-0.14-0.3-0.21c-0.07-0.04-0.18-0.11-0.33-0.18c-0.05-0.02-0.11-0.05-0.23-0.1c-0.08-0.03-0.14-0.06-0.19-0.08
			c-0.13-0.05-0.27-0.11-0.4-0.16c-0.1-0.04-0.24-0.1-0.39-0.18c-0.17-0.09-0.46-0.24-0.78-0.51c-0.15-0.13-0.3-0.26-0.45-0.47
			c-0.05-0.07-0.16-0.24-0.24-0.48C159.92,206.09,159.9,205.84,159.9,205.65z"/>
		<path class="st11" d="M164.03,207.48c0.01-0.02,0.02-0.06,0.02-0.1c-0.01-0.1-0.09-0.16-0.11-0.17c0.05,0,0.09,0,0.11,0.01
			c0.05,0.01,0.09,0.03,0.11,0.04c0.03,0.02,0.05,0.03,0.06,0.05c0.02,0.04,0,0.09-0.01,0.1c0.01,0,0.06,0.01,0.1-0.03
			c0.04-0.03,0.04-0.08,0.04-0.09c0-0.04-0.01-0.08-0.02-0.09c-0.04-0.08-0.13-0.1-0.21-0.11c-0.1-0.02-0.17-0.04-0.23,0
			c-0.04,0.03-0.08,0.08-0.08,0.13C163.8,207.33,163.89,207.44,164.03,207.48z"/>
		<path class="st11" d="M162.69,207.27c0.04,0.09,0.13,0.15,0.21,0.14c0.01,0,0.09-0.01,0.13-0.07c0.01-0.01,0.03-0.04,0.03-0.07
			c0-0.05-0.03-0.1-0.09-0.14c0,0.01-0.01,0.08-0.05,0.11c-0.06,0.04-0.17,0.01-0.23-0.09
			C162.69,207.19,162.69,207.23,162.69,207.27z"/>
		<path class="st11" d="M163.85,208.07c0.04-0.06,0.08-0.13,0.12-0.19c-0.03-0.02-0.06-0.04-0.09-0.05
			c-0.04,0.06-0.07,0.12-0.11,0.17C163.8,208.02,163.83,208.04,163.85,208.07z"/>
		<path class="st11" d="M163.7,207.95c-0.29,0.02-0.57,0.03-0.83,0.04C163.1,208.16,163.5,208.15,163.7,207.95z"/>
		<path class="st11" d="M163.24,208.31c0.08-0.03,0.16-0.06,0.24-0.09c0.05-0.02,0.1-0.04,0.14-0.05c0.03-0.01,0.09-0.03,0.14-0.09
			c0.02-0.02,0.03-0.05,0.04-0.07c-0.06,0.03-0.13,0.06-0.2,0.09c-0.04,0.02-0.08,0.03-0.12,0.04c-0.04,0.01-0.1,0.04-0.15,0.08
			C163.3,208.25,163.26,208.28,163.24,208.31z"/>
	</g>
</g>
<polygon class="st12" points="135.68,136.02 135.88,110.65 153.86,104.51 146.55,77.4 153.8,52.39 137.89,55.35 125.77,58.38 
	124.53,87.23 42.75,110.94 42.55,136.64 24.58,142 31.73,169.35 24.32,194.01 40.27,191.71 57.47,189.23 57.47,189.22 57.47,189.22 
	57.35,186.26 56.27,159.03 "/>
<g>
	<g>
		<linearGradient id="SVGID_1_" gradientUnits="userSpaceOnUse" x1="33.2343" y1="162.2861" x2="57.4687" y2="162.2861">
			<stop  offset="0" style="stop-color:#FFFFFF"/>
			<stop  offset="0" style="stop-color:#000000"/>
			<stop  offset="0.0922" style="stop-color:#070401"/>
			<stop  offset="0.2218" style="stop-color:#190E03"/>
			<stop  offset="0.3737" style="stop-color:#371F07"/>
			<stop  offset="0.5425" style="stop-color:#61370C"/>
			<stop  offset="0.7251" style="stop-color:#975613"/>
			<stop  offset="0.9166" style="stop-color:#D77B1B"/>
			<stop  offset="1" style="stop-color:#F68C1F"/>
		</linearGradient>
		<polygon class="st13" points="43.65,145.35 33.42,152.52 43.94,153.83 33.23,159.46 43.88,160.6 34.11,167.83 43.69,168.11 
			34.01,174.36 44.22,175.44 34.4,182.43 44.3,182.03 33.97,190.98 40.27,191.71 57.47,189.23 55.23,132.86 42.91,136.54 
			33.3,145.57 		"/>
		<linearGradient id="SVGID_2_" gradientUnits="userSpaceOnUse" x1="24.3169" y1="165.2741" x2="44.3002" y2="165.2741">
			<stop  offset="0" style="stop-color:#FFFFFF"/>
			<stop  offset="0" style="stop-color:#000000"/>
			<stop  offset="1" style="stop-color:#F68C1F"/>
		</linearGradient>
		<polygon class="st14" points="40.27,191.71 33.97,190.98 44.3,182.03 34.4,182.43 44.22,175.44 34.01,174.36 43.69,168.11 
			34.11,167.83 43.88,160.6 33.23,159.46 43.94,153.83 33.42,152.52 43.65,145.35 33.3,145.57 42.91,136.54 24.58,142 31.73,169.35 
			24.32,194.01 		"/>
	</g>
	<linearGradient id="SVGID_3_" gradientUnits="userSpaceOnUse" x1="41.6485" y1="173.458" x2="56.836" y2="173.458">
		<stop  offset="0" style="stop-color:#FFFFFF"/>
		<stop  offset="0" style="stop-color:#000000"/>
		<stop  offset="0.0896" style="stop-color:#070401"/>
		<stop  offset="0.222" style="stop-color:#1B0F03"/>
		<stop  offset="0.381" style="stop-color:#3C2208"/>
		<stop  offset="0.5605" style="stop-color:#693C0D"/>
		<stop  offset="0.7572" style="stop-color:#A45D15"/>
		<stop  offset="0.9656" style="stop-color:#EA851D"/>
		<stop  offset="1" style="stop-color:#F68C1F"/>
		<stop  offset="1" style="stop-color:#E88928"/>
	</linearGradient>
	<path class="st15" d="M56.84,187.97c-5.1-8.28-10.09-16.51-15.19-24.8c4.95-1.41,9.9-2.81,14.85-4.22
		C56.64,168.64,56.69,178.28,56.84,187.97z"/>
	<g>
		<linearGradient id="SVGID_4_" gradientUnits="userSpaceOnUse" x1="123.3382" y1="85.1368" x2="145.1404" y2="85.1368">
			<stop  offset="0" style="stop-color:#FFFFFF"/>
			<stop  offset="0" style="stop-color:#000000"/>
			<stop  offset="0.0879" style="stop-color:#080501"/>
			<stop  offset="0.2243" style="stop-color:#1E1104"/>
			<stop  offset="0.392" style="stop-color:#422508"/>
			<stop  offset="0.5848" style="stop-color:#73420F"/>
			<stop  offset="0.7955" style="stop-color:#B26516"/>
			<stop  offset="1" style="stop-color:#F68C1F"/>
		</linearGradient>
		<polygon class="st16" points="134.82,101.94 144.97,94.34 134.47,93.45 145.12,87.37 134.48,86.67 144.19,79.02 134.63,79.14 
			144.25,72.48 134.06,71.81 143.81,64.41 133.93,65.21 144.18,55.83 137.89,55.35 125.77,58.38 123.34,114.92 135.6,110.74 
			145.14,101.3 		"/>
		<linearGradient id="SVGID_5_" gradientUnits="userSpaceOnUse" x1="133.9344" y1="81.5666" x2="153.8575" y2="81.5666">
			<stop  offset="0" style="stop-color:#FFFFFF"/>
			<stop  offset="0" style="stop-color:#000000"/>
			<stop  offset="0.0938" style="stop-color:#060401"/>
			<stop  offset="0.2224" style="stop-color:#180E03"/>
			<stop  offset="0.3713" style="stop-color:#351E07"/>
			<stop  offset="0.5353" style="stop-color:#5D350C"/>
			<stop  offset="0.7118" style="stop-color:#915312"/>
			<stop  offset="0.8959" style="stop-color:#CF761A"/>
			<stop  offset="1" style="stop-color:#F68C1F"/>
		</linearGradient>
		<path class="st17" d="M140.63,54.84c1.18,0.33,2.37,0.66,3.55,0.99l-10.25,9.38l9.88-0.8l-9.76,7.4l10.19,0.67l-9.62,6.66
			l9.57-0.11l-9.71,7.64l10.63,0.71l-10.64,6.08l10.5,0.89l-10.16,7.6l10.32-0.64l-9.54,9.44l18.25-6.23l-7.3-27.11l7.25-25.01
			C149.41,53.21,145.02,54.02,140.63,54.84z"/>
	</g>
	<linearGradient id="SVGID_6_" gradientUnits="userSpaceOnUse" x1="124.3013" y1="73.5222" x2="137.0791" y2="73.5222">
		<stop  offset="0" style="stop-color:#FFFFFF"/>
		<stop  offset="0" style="stop-color:#000000"/>
		<stop  offset="0.6819" style="stop-color:#A75F15"/>
		<stop  offset="1" style="stop-color:#F68C1F"/>
	</linearGradient>
	<path class="st18" d="M126.4,59.87c3.56,7.97,7.12,15.94,10.68,23.91c-4.26,1.13-8.52,2.26-12.78,3.39
		C125,78.07,125.7,68.97,126.4,59.87z"/>
	<radialGradient id="SVGID_7_" cx="89.2152" cy="123.4772" r="43.3806" gradientUnits="userSpaceOnUse">
		<stop  offset="0" style="stop-color:#FFFFFF"/>
		<stop  offset="0.2061" style="stop-color:#FFFEFC"/>
		<stop  offset="0.3466" style="stop-color:#FFF9F3"/>
		<stop  offset="0.4676" style="stop-color:#FEF1E4"/>
		<stop  offset="0.5775" style="stop-color:#FDE6CE"/>
		<stop  offset="0.6799" style="stop-color:#FCD8B2"/>
		<stop  offset="0.7768" style="stop-color:#FBC690"/>
		<stop  offset="0.8695" style="stop-color:#F9B167"/>
		<stop  offset="0.9563" style="stop-color:#F79939"/>
		<stop  offset="1" style="stop-color:#F68C1F"/>
		<stop  offset="1" style="stop-color:#000000"/>
	</radialGradient>
	<polygon class="st19" points="135.68,136.02 42.35,163.07 42.75,110.94 136.08,83.89 	"/>
</g>
<path class="st20" d="M50.08,167.84"/>
<path class="st20" d="M25.13,151.34"/>
<rect x="154.16" y="214.4" class="st5" width="21.44" height="37"/>
<text transform="matrix(-1 0 0 -1 175.5986 225.9258)" class="st6 st7 st8 st9">4</text>
<g>
	<path d="M70.47,113.45l2.05-0.57c0.08,0.42,0.28,0.69,0.61,0.81c0.33,0.12,0.72,0.12,1.15,0c0.55-0.15,0.95-0.38,1.21-0.67
		c0.26-0.3,0.38-0.6,0.38-0.91c0-0.3-0.13-0.49-0.38-0.58c-0.26-0.09-0.57-0.14-0.96-0.15s-0.8-0.02-1.24-0.03
		c-0.44-0.01-0.86-0.08-1.24-0.21c-0.39-0.13-0.71-0.37-0.96-0.7s-0.39-0.85-0.39-1.52c0-0.45,0.08-0.88,0.24-1.3
		c0.16-0.42,0.4-0.81,0.7-1.17c0.31-0.36,0.67-0.68,1.1-0.94c0.43-0.27,0.9-0.48,1.44-0.63c0.57-0.16,1.07-0.21,1.5-0.17
		c0.44,0.04,0.81,0.17,1.12,0.37s0.56,0.47,0.74,0.81c0.18,0.34,0.3,0.73,0.35,1.16l-2.05,0.57c-0.07-0.41-0.24-0.68-0.53-0.82
		c-0.28-0.14-0.65-0.14-1.1-0.02c-0.51,0.14-0.88,0.35-1.13,0.61c-0.25,0.27-0.37,0.55-0.37,0.84c0,0.3,0.13,0.49,0.38,0.58
		c0.26,0.09,0.58,0.14,0.96,0.15s0.8,0.02,1.24,0.03c0.44,0.01,0.86,0.08,1.24,0.21c0.39,0.13,0.71,0.36,0.96,0.69
		c0.26,0.33,0.39,0.82,0.39,1.48c0,0.45-0.08,0.89-0.23,1.33c-0.16,0.44-0.39,0.84-0.7,1.22c-0.31,0.38-0.69,0.71-1.15,1.01
		c-0.45,0.3-0.98,0.53-1.57,0.69c-0.46,0.13-0.9,0.19-1.32,0.17c-0.42-0.02-0.81-0.11-1.15-0.29c-0.34-0.17-0.63-0.43-0.86-0.76
		C70.69,114.4,70.54,113.98,70.47,113.45z"/>
	<path d="M85.91,103.68l-2.8,0.78l0.04,8.53l-2.02,0.56l-0.04-8.53l-2.8,0.78l-0.01-1.92l7.63-2.13L85.91,103.68z"/>
	<path d="M94.23,99.44l0.03,6.14c0.01,1.47-0.32,2.67-0.97,3.61c-0.65,0.94-1.57,1.57-2.76,1.9s-2.11,0.21-2.77-0.36
		c-0.66-0.57-0.99-1.59-1-3.06l-0.03-6.14l2.02-0.56l0.03,6.36c0,0.69,0.15,1.21,0.43,1.56c0.29,0.35,0.72,0.44,1.31,0.28
		s1.03-0.5,1.31-1.01c0.28-0.51,0.42-1.11,0.42-1.79L92.21,100L94.23,99.44z"/>
	<path d="M103.62,96.82l0.05,10.45l-2.69,0.75c-0.2-0.59-0.42-1.18-0.66-1.76c-0.24-0.58-0.47-1.12-0.71-1.62
		c-0.24-0.51-0.46-0.96-0.67-1.38c-0.21-0.42-0.39-0.76-0.54-1.03c-0.04-0.07-0.08-0.14-0.12-0.22c-0.04-0.07-0.08-0.14-0.13-0.22
		c-0.05-0.08-0.09-0.17-0.14-0.27l-0.05,0.01c0.02,0.31,0.03,0.6,0.03,0.87c0,0.27,0.01,0.5,0.02,0.69c0,0.23,0.01,0.43,0.02,0.61
		l0.03,5.13l-2.02,0.56l-0.05-10.45l2.32-0.65c0.26,0.32,0.51,0.65,0.76,1s0.5,0.72,0.74,1.12c0.24,0.4,0.47,0.82,0.7,1.28
		c0.23,0.46,0.44,0.95,0.64,1.47c0.03,0.09,0.08,0.19,0.12,0.31c0.04,0.1,0.09,0.23,0.15,0.38c0.06,0.15,0.12,0.34,0.2,0.54
		l0.05-0.01c-0.01-0.39-0.02-0.72-0.02-1.01c-0.01-0.29-0.01-0.53-0.01-0.72l0-0.57l-0.02-4.72L103.62,96.82z"/>
</g>
<g>
	<path d="M62.67,124.2c-0.02,0.17-0.06,0.35-0.09,0.53c-0.04,0.18-0.08,0.36-0.13,0.53c-0.05,0.18-0.1,0.35-0.15,0.51
		c-0.05,0.16-0.11,0.31-0.17,0.45l-0.81,0.24c-0.03-0.09-0.06-0.19-0.09-0.29c-0.03-0.1-0.04-0.21-0.05-0.32
		c-0.01-0.05-0.01-0.11-0.02-0.17c0-0.05-0.01-0.12-0.01-0.19c0-0.07-0.01-0.15-0.01-0.24l-0.02,0c-0.02,0.1-0.03,0.18-0.05,0.26
		c-0.02,0.08-0.03,0.15-0.04,0.2c-0.02,0.07-0.03,0.13-0.05,0.18c-0.02,0.12-0.06,0.24-0.1,0.37c-0.05,0.13-0.09,0.24-0.14,0.36
		l-0.81,0.24c-0.04-0.11-0.07-0.23-0.1-0.37c-0.03-0.14-0.05-0.29-0.07-0.45c-0.02-0.16-0.03-0.32-0.04-0.49
		c-0.01-0.17-0.01-0.33-0.01-0.5l0.6-0.18l0,0.04c0,0.21,0,0.42,0.01,0.63c0.01,0.21,0.03,0.41,0.05,0.59
		c0,0.02,0.01,0.05,0.01,0.07c0,0.05,0.01,0.11,0.02,0.17l0.02,0c0.01-0.03,0.01-0.05,0.02-0.07c0.01-0.02,0.01-0.05,0.02-0.07
		c0.01-0.02,0.01-0.04,0.02-0.06c0.04-0.13,0.1-0.32,0.16-0.57c0.07-0.25,0.13-0.54,0.19-0.88l0.66-0.19
		c0.01,0.32,0.03,0.59,0.06,0.81c0.03,0.22,0.05,0.39,0.07,0.5c0,0.02,0.01,0.03,0.01,0.05c0,0.02,0.01,0.04,0.01,0.06
		c0,0.02,0.01,0.04,0.01,0.06l0.02,0c0.01-0.04,0.02-0.07,0.03-0.11c0.01-0.03,0.02-0.06,0.02-0.09c0.01-0.03,0.01-0.06,0.02-0.08
		c0.06-0.21,0.11-0.43,0.16-0.65c0.05-0.22,0.09-0.45,0.12-0.66l0-0.04L62.67,124.2z"/>
	<path d="M63.79,123.38c-0.01,0.08-0.04,0.15-0.11,0.22c-0.07,0.07-0.15,0.12-0.25,0.15c-0.1,0.03-0.18,0.03-0.24-0.01
		c-0.06-0.03-0.08-0.09-0.08-0.16c0.01-0.08,0.04-0.15,0.11-0.22c0.07-0.07,0.15-0.12,0.25-0.15c0.1-0.03,0.18-0.03,0.24,0
		C63.77,123.25,63.8,123.3,63.79,123.38z M62.95,125.99l0.61-0.18l0.16-1.92l-0.61,0.18L62.95,125.99z"/>
	<path d="M64.93,123.96l-0.06,0.76c-0.01,0.13,0,0.22,0.03,0.25c0.03,0.03,0.08,0.04,0.15,0.02c0.05-0.02,0.11-0.04,0.18-0.06
		c0.07-0.02,0.12-0.04,0.16-0.06l-0.03,0.4c-0.03,0.01-0.06,0.02-0.1,0.04c-0.04,0.01-0.08,0.03-0.12,0.04
		c-0.04,0.01-0.09,0.03-0.13,0.04c-0.04,0.01-0.08,0.03-0.12,0.04c-0.22,0.07-0.39,0.06-0.5-0.01c-0.11-0.07-0.16-0.22-0.14-0.44
		l0.07-0.84l-0.3,0.09l0.04-0.44l0.3-0.09l0.05-0.63l0.61-0.18l-0.05,0.63l0.55-0.16l-0.04,0.44L64.93,123.96z"/>
	<path d="M67.17,122.85c0.13-0.04,0.25-0.05,0.35-0.04c0.1,0.01,0.18,0.05,0.24,0.1c0.06,0.05,0.11,0.13,0.13,0.22
		c0.03,0.09,0.03,0.19,0.02,0.31l-0.09,1.12l-0.61,0.18l0.09-1.06c0.01-0.15-0.01-0.25-0.05-0.31c-0.05-0.06-0.14-0.07-0.29-0.03
		c-0.05,0.01-0.1,0.04-0.15,0.07s-0.1,0.07-0.14,0.11c-0.04,0.04-0.08,0.09-0.11,0.14c-0.03,0.05-0.05,0.1-0.05,0.15l-0.1,1.17
		l-0.61,0.18l0.22-2.69l0.61-0.18l-0.08,0.94l0.02,0c0.09-0.09,0.18-0.16,0.29-0.23C66.94,122.93,67.05,122.88,67.17,122.85z"/>
	<path d="M71.85,121.48c0.24-0.07,0.42-0.06,0.53,0.04c0.11,0.09,0.15,0.26,0.14,0.49l-0.1,1.22l-0.61,0.18l0.1-1.25
		c0.01-0.09-0.01-0.15-0.05-0.18c-0.04-0.03-0.1-0.03-0.17-0.01c-0.09,0.02-0.16,0.07-0.23,0.15c-0.07,0.07-0.11,0.15-0.12,0.24
		l0,0.01l-0.1,1.22l-0.61,0.18l0.1-1.25c0.01-0.09-0.01-0.15-0.05-0.18c-0.04-0.03-0.1-0.03-0.18-0.01
		c-0.09,0.02-0.16,0.07-0.23,0.14c-0.07,0.07-0.11,0.15-0.11,0.23l-0.1,1.23l-0.61,0.18l0.16-1.93l0.25-0.07l0.16,0.2l0.02,0
		c0.08-0.11,0.18-0.2,0.29-0.28c0.11-0.08,0.23-0.14,0.36-0.18c0.26-0.08,0.45-0.05,0.56,0.07l0.02,0c0.08-0.09,0.17-0.18,0.28-0.25
		C71.62,121.57,71.73,121.51,71.85,121.48z"/>
	<path d="M74.03,120.84c0.17-0.05,0.32-0.07,0.45-0.06c0.13,0.01,0.23,0.05,0.32,0.11c0.08,0.06,0.14,0.15,0.18,0.26
		c0.04,0.11,0.05,0.23,0.04,0.37c-0.01,0.14-0.05,0.28-0.1,0.42c-0.06,0.13-0.13,0.26-0.23,0.37c-0.1,0.12-0.21,0.22-0.35,0.31
		c-0.14,0.09-0.29,0.16-0.47,0.21c-0.17,0.05-0.32,0.07-0.45,0.06c-0.13-0.01-0.23-0.05-0.32-0.11c-0.08-0.06-0.14-0.15-0.18-0.26
		c-0.04-0.11-0.05-0.23-0.04-0.38c0.01-0.14,0.05-0.28,0.1-0.41c0.06-0.14,0.13-0.26,0.23-0.38c0.1-0.12,0.21-0.22,0.35-0.31
		C73.71,120.96,73.86,120.89,74.03,120.84z M73.91,122.4c0.15-0.04,0.27-0.12,0.35-0.24c0.09-0.12,0.14-0.27,0.15-0.45
		c0.01-0.18-0.01-0.31-0.08-0.38c-0.07-0.07-0.18-0.09-0.33-0.04c-0.14,0.04-0.26,0.12-0.35,0.24c-0.09,0.12-0.14,0.27-0.15,0.45
		c-0.01,0.18,0.01,0.31,0.09,0.38C73.65,122.42,73.76,122.44,73.91,122.4z"/>
	<path d="M77.79,119.75c0.24-0.07,0.42-0.06,0.53,0.04c0.11,0.09,0.15,0.26,0.14,0.49l-0.1,1.22l-0.61,0.18l0.1-1.25
		c0.01-0.09-0.01-0.15-0.05-0.18c-0.04-0.03-0.1-0.03-0.17-0.01c-0.09,0.02-0.16,0.07-0.23,0.15c-0.07,0.07-0.11,0.15-0.12,0.24
		l0,0.01l-0.1,1.22l-0.61,0.18l0.1-1.25c0.01-0.09-0.01-0.15-0.05-0.18c-0.04-0.03-0.1-0.03-0.18-0.01
		c-0.09,0.02-0.16,0.07-0.23,0.14c-0.07,0.07-0.11,0.15-0.11,0.23l-0.1,1.23l-0.61,0.18l0.16-1.93l0.25-0.07l0.16,0.2l0.02,0
		c0.08-0.11,0.18-0.2,0.29-0.28c0.11-0.08,0.23-0.14,0.36-0.18c0.26-0.08,0.45-0.05,0.56,0.07l0.02,0c0.08-0.09,0.17-0.18,0.28-0.25
		C77.56,119.83,77.67,119.78,77.79,119.75z"/>
	<path d="M78.79,119.72c0.08-0.19,0.14-0.37,0.18-0.53s0.07-0.34,0.09-0.52l0.55-0.16c-0.02,0.09-0.04,0.18-0.07,0.28
		c-0.03,0.1-0.07,0.19-0.12,0.29c-0.04,0.1-0.09,0.19-0.15,0.29c-0.05,0.1-0.11,0.19-0.17,0.27L78.79,119.72z"/>
	<path d="M79.89,119.71c0.01-0.07,0.03-0.15,0.07-0.23c0.04-0.08,0.1-0.16,0.18-0.24c0.08-0.08,0.17-0.15,0.29-0.22
		c0.11-0.07,0.25-0.12,0.4-0.17c0.15-0.04,0.28-0.07,0.39-0.07c0.11,0,0.2,0.02,0.28,0.05c0.08,0.04,0.13,0.08,0.17,0.15
		c0.04,0.07,0.06,0.14,0.07,0.22l-0.61,0.18c-0.01-0.08-0.04-0.13-0.09-0.15c-0.06-0.02-0.14-0.02-0.24,0.01
		c-0.1,0.03-0.17,0.07-0.22,0.11c-0.05,0.05-0.07,0.09-0.07,0.13c0,0.05,0.02,0.07,0.08,0.08c0.06,0.01,0.13,0.01,0.23,0
		c0.09-0.01,0.19-0.01,0.3-0.02s0.2,0,0.29,0.01c0.09,0.02,0.16,0.05,0.22,0.11c0.05,0.06,0.08,0.14,0.07,0.26
		c-0.01,0.09-0.04,0.18-0.09,0.27c-0.05,0.09-0.12,0.18-0.21,0.25c-0.09,0.08-0.19,0.15-0.31,0.21c-0.12,0.06-0.25,0.12-0.38,0.16
		c-0.14,0.04-0.27,0.06-0.39,0.07c-0.12,0-0.22-0.01-0.3-0.04c-0.08-0.03-0.15-0.08-0.2-0.14c-0.05-0.06-0.08-0.14-0.08-0.23
		l0.64-0.19c0.01,0.07,0.04,0.11,0.1,0.14c0.06,0.03,0.15,0.03,0.27-0.01c0.11-0.03,0.19-0.07,0.24-0.12
		c0.05-0.05,0.08-0.09,0.08-0.13c0-0.05-0.02-0.08-0.08-0.09c-0.06-0.01-0.13-0.01-0.23,0c-0.09,0.01-0.19,0.01-0.29,0.02
		c-0.1,0.01-0.2,0-0.29-0.02c-0.09-0.02-0.16-0.06-0.22-0.12C79.91,119.93,79.88,119.84,79.89,119.71z"/>
	<path d="M83.26,118.73c0.01-0.07,0.03-0.15,0.07-0.23c0.04-0.08,0.1-0.16,0.18-0.24c0.08-0.08,0.17-0.15,0.29-0.22
		c0.11-0.07,0.25-0.12,0.4-0.17c0.15-0.04,0.28-0.07,0.4-0.07c0.11,0,0.21,0.02,0.28,0.05c0.08,0.04,0.13,0.08,0.17,0.15
		c0.04,0.07,0.06,0.14,0.07,0.22l-0.61,0.18c-0.01-0.08-0.04-0.13-0.09-0.15c-0.06-0.02-0.14-0.02-0.24,0.01
		c-0.1,0.03-0.17,0.07-0.22,0.11c-0.05,0.05-0.07,0.09-0.07,0.13c0,0.05,0.02,0.07,0.08,0.08c0.06,0.01,0.13,0.01,0.23,0
		c0.09-0.01,0.19-0.01,0.3-0.02s0.2,0,0.29,0.01c0.09,0.02,0.16,0.05,0.22,0.11c0.05,0.06,0.08,0.14,0.07,0.26
		c-0.01,0.09-0.04,0.18-0.09,0.28c-0.05,0.09-0.12,0.18-0.21,0.25c-0.09,0.08-0.19,0.15-0.31,0.21c-0.12,0.06-0.25,0.12-0.39,0.16
		c-0.14,0.04-0.27,0.06-0.39,0.07c-0.12,0-0.22-0.01-0.3-0.04c-0.08-0.03-0.15-0.08-0.2-0.14c-0.05-0.06-0.08-0.14-0.08-0.23
		l0.64-0.19c0.01,0.07,0.04,0.11,0.1,0.14c0.06,0.03,0.15,0.03,0.27-0.01c0.11-0.03,0.19-0.07,0.24-0.12
		c0.05-0.05,0.08-0.09,0.08-0.13c0-0.05-0.02-0.08-0.08-0.09s-0.13-0.01-0.23,0c-0.09,0.01-0.19,0.01-0.29,0.02
		c-0.1,0.01-0.2,0-0.29-0.02c-0.09-0.02-0.16-0.06-0.22-0.12C83.27,118.95,83.25,118.85,83.26,118.73z"/>
	<path d="M87.6,116.92l-0.16,1.93l-0.25,0.07l-0.18-0.22l-0.02,0c-0.1,0.11-0.21,0.22-0.34,0.31c-0.13,0.1-0.27,0.16-0.42,0.21
		c-0.14,0.04-0.26,0.05-0.36,0.04c-0.1-0.01-0.18-0.05-0.25-0.1c-0.06-0.05-0.11-0.13-0.14-0.22c-0.03-0.09-0.03-0.19-0.03-0.31
		l0.09-1.12l0.61-0.18l-0.09,1.06c-0.01,0.07-0.01,0.13,0,0.18c0.01,0.05,0.02,0.09,0.05,0.12c0.03,0.03,0.06,0.05,0.11,0.06
		c0.05,0.01,0.11,0,0.19-0.02c0.04-0.01,0.09-0.03,0.14-0.06c0.05-0.03,0.1-0.07,0.14-0.11c0.04-0.04,0.08-0.09,0.11-0.14
		c0.03-0.05,0.05-0.1,0.05-0.16l0.1-1.17L87.6,116.92z"/>
	<path d="M89.35,116.37c0.16-0.05,0.29-0.06,0.4-0.04c0.11,0.02,0.2,0.07,0.27,0.14c0.07,0.07,0.11,0.16,0.14,0.27
		c0.03,0.11,0.03,0.23,0.02,0.36c-0.01,0.13-0.04,0.25-0.08,0.38c-0.04,0.13-0.1,0.25-0.18,0.36c-0.08,0.11-0.17,0.22-0.29,0.3
		c-0.12,0.09-0.25,0.15-0.4,0.2c-0.11,0.03-0.22,0.05-0.31,0.04c-0.1,0-0.18-0.03-0.25-0.08l-0.02,0l-0.07,0.88l-0.61,0.18
		l0.22-2.64l0.25-0.07l0.18,0.22l0.02,0c0.09-0.13,0.2-0.24,0.33-0.32C89.07,116.47,89.21,116.41,89.35,116.37z M89.09,117.96
		c0.09-0.03,0.16-0.06,0.22-0.11c0.06-0.05,0.11-0.11,0.14-0.17c0.04-0.06,0.06-0.13,0.08-0.2c0.02-0.07,0.03-0.14,0.03-0.2
		c0.01-0.07,0-0.13,0-0.19c-0.01-0.06-0.02-0.12-0.05-0.16c-0.03-0.04-0.07-0.07-0.12-0.09c-0.05-0.02-0.12-0.01-0.21,0.01
		c-0.09,0.02-0.16,0.06-0.21,0.11c-0.06,0.05-0.1,0.11-0.14,0.17c-0.04,0.06-0.06,0.13-0.08,0.2c-0.02,0.07-0.03,0.14-0.04,0.2
		c-0.01,0.06,0,0.13,0,0.19c0.01,0.06,0.03,0.12,0.05,0.16c0.03,0.04,0.07,0.08,0.12,0.09C88.94,117.99,89.01,117.98,89.09,117.96z"
		/>
	<path d="M92.63,116.43c0,0.01,0,0.03-0.01,0.05s-0.01,0.03-0.01,0.05l-1.48,0.43c0.01,0.15,0.05,0.24,0.12,0.29
		c0.07,0.04,0.17,0.05,0.29,0.01c0.1-0.03,0.19-0.08,0.27-0.14c0.07-0.06,0.12-0.14,0.15-0.21l0.6-0.17
		c-0.08,0.22-0.21,0.41-0.39,0.58c-0.18,0.17-0.4,0.29-0.67,0.37c-0.17,0.05-0.32,0.07-0.45,0.06c-0.13-0.01-0.24-0.05-0.32-0.11
		c-0.08-0.06-0.14-0.15-0.18-0.26c-0.03-0.11-0.05-0.23-0.04-0.37c0.01-0.14,0.05-0.28,0.1-0.41c0.06-0.14,0.13-0.26,0.23-0.38
		c0.1-0.11,0.22-0.22,0.35-0.31s0.29-0.16,0.47-0.21c0.17-0.05,0.32-0.07,0.45-0.05c0.13,0.01,0.23,0.05,0.31,0.12
		c0.08,0.06,0.14,0.15,0.17,0.26c0.03,0.11,0.04,0.23,0.02,0.37L92.63,116.43z M91.65,116.1c-0.11,0.03-0.21,0.09-0.3,0.17
		c-0.08,0.08-0.15,0.2-0.18,0.34l0.88-0.26c0-0.12-0.04-0.2-0.11-0.25C91.87,116.07,91.77,116.07,91.65,116.1z"/>
	<path d="M94.2,114.95c0.06-0.02,0.12-0.03,0.18-0.04c0.06-0.01,0.11-0.01,0.15-0.01l-0.04,0.49c-0.04,0-0.1,0-0.18,0.01
		c-0.07,0.01-0.14,0.02-0.2,0.04c-0.12,0.03-0.21,0.1-0.28,0.18s-0.11,0.19-0.12,0.32l-0.09,1.09L93,117.21l0.16-1.93l0.25-0.07
		l0.18,0.22l0.02,0c0.07-0.11,0.16-0.21,0.26-0.29C93.96,115.05,94.08,114.99,94.2,114.95z"/>
	<path d="M95.87,115.04c0.01-0.07,0.03-0.15,0.07-0.23c0.04-0.08,0.1-0.16,0.18-0.24c0.08-0.08,0.17-0.15,0.29-0.22
		c0.11-0.07,0.25-0.12,0.4-0.17c0.15-0.04,0.28-0.07,0.4-0.07s0.21,0.02,0.28,0.05c0.08,0.04,0.13,0.08,0.17,0.15
		c0.04,0.07,0.06,0.14,0.07,0.22l-0.61,0.18c-0.01-0.08-0.04-0.13-0.09-0.15c-0.06-0.02-0.14-0.02-0.24,0.01
		c-0.1,0.03-0.17,0.07-0.22,0.11c-0.05,0.05-0.07,0.09-0.07,0.13c0,0.05,0.02,0.07,0.08,0.08c0.06,0.01,0.13,0.01,0.23,0
		c0.09-0.01,0.19-0.01,0.3-0.02c0.11-0.01,0.2,0,0.29,0.01c0.09,0.02,0.16,0.05,0.22,0.11s0.08,0.14,0.07,0.26
		c-0.01,0.09-0.04,0.18-0.09,0.28c-0.05,0.09-0.12,0.18-0.21,0.25c-0.09,0.08-0.19,0.15-0.31,0.21c-0.12,0.06-0.25,0.12-0.38,0.16
		c-0.14,0.04-0.27,0.06-0.39,0.07c-0.12,0-0.22-0.01-0.3-0.04c-0.08-0.03-0.15-0.08-0.2-0.14c-0.05-0.06-0.08-0.14-0.08-0.23
		l0.64-0.19c0.01,0.07,0.04,0.11,0.1,0.14c0.06,0.03,0.15,0.03,0.27-0.01c0.11-0.03,0.19-0.07,0.24-0.12
		c0.05-0.05,0.08-0.09,0.08-0.13c0-0.05-0.02-0.08-0.08-0.09s-0.13-0.01-0.23,0c-0.09,0.01-0.19,0.01-0.29,0.02
		c-0.1,0.01-0.2,0-0.29-0.02c-0.09-0.02-0.16-0.06-0.22-0.12C95.89,115.26,95.86,115.17,95.87,115.04z"/>
	<path d="M99.18,113.5c0.17-0.05,0.32-0.07,0.45-0.06c0.13,0.01,0.23,0.05,0.32,0.11c0.08,0.06,0.14,0.15,0.18,0.26
		c0.04,0.11,0.05,0.23,0.04,0.37c-0.01,0.14-0.05,0.28-0.1,0.42c-0.06,0.13-0.13,0.26-0.23,0.37c-0.1,0.12-0.21,0.22-0.35,0.31
		c-0.14,0.09-0.29,0.16-0.47,0.21c-0.17,0.05-0.32,0.07-0.45,0.06c-0.13-0.01-0.23-0.05-0.32-0.11c-0.08-0.06-0.14-0.15-0.18-0.26
		c-0.04-0.11-0.05-0.23-0.04-0.38c0.01-0.14,0.05-0.28,0.1-0.41c0.06-0.14,0.13-0.26,0.23-0.38c0.1-0.12,0.21-0.22,0.35-0.31
		C98.85,113.62,99.01,113.55,99.18,113.5z M99.05,115.05c0.15-0.04,0.27-0.12,0.35-0.24c0.08-0.12,0.13-0.27,0.15-0.45
		c0.01-0.18-0.01-0.31-0.08-0.38c-0.07-0.07-0.18-0.09-0.33-0.04c-0.14,0.04-0.26,0.12-0.35,0.24c-0.09,0.12-0.14,0.27-0.15,0.45
		c-0.01,0.18,0.01,0.31,0.09,0.38C98.8,115.08,98.91,115.09,99.05,115.05z"/>
	<path d="M101.88,112.71c0.14-0.04,0.26-0.05,0.36-0.04c0.1,0.01,0.18,0.05,0.24,0.1c0.06,0.05,0.11,0.13,0.13,0.22
		c0.03,0.09,0.03,0.19,0.03,0.31l-0.09,1.12l-0.61,0.18l0.09-1.06c0.01-0.14-0.01-0.24-0.05-0.31c-0.05-0.06-0.15-0.08-0.3-0.03
		c-0.04,0.01-0.09,0.03-0.14,0.06s-0.1,0.07-0.14,0.11c-0.04,0.04-0.08,0.09-0.11,0.14c-0.03,0.05-0.05,0.1-0.05,0.16l-0.1,1.17
		l-0.61,0.18l0.16-1.93l0.25-0.07l0.18,0.22l0.02,0c0.1-0.11,0.21-0.22,0.34-0.31C101.59,112.82,101.73,112.75,101.88,112.71z"/>
	<path d="M103.94,111.65c-0.01,0.08-0.04,0.15-0.11,0.22c-0.07,0.07-0.15,0.12-0.25,0.15c-0.1,0.03-0.18,0.03-0.24-0.01
		c-0.06-0.03-0.08-0.09-0.08-0.16c0.01-0.08,0.04-0.15,0.11-0.22c0.07-0.07,0.15-0.12,0.25-0.15c0.1-0.03,0.18-0.03,0.24,0.01
		C103.92,111.52,103.95,111.57,103.94,111.65z M103.1,114.26l0.61-0.18l0.16-1.92l-0.61,0.18L103.1,114.26z"/>
	<path d="M106.26,112.73c-0.08,0.22-0.21,0.41-0.39,0.58c-0.18,0.17-0.4,0.29-0.67,0.37c-0.17,0.05-0.32,0.07-0.45,0.06
		c-0.13-0.01-0.23-0.05-0.32-0.11c-0.08-0.06-0.14-0.15-0.18-0.26c-0.04-0.11-0.05-0.23-0.04-0.37c0.01-0.14,0.05-0.28,0.1-0.41
		c0.06-0.14,0.13-0.26,0.23-0.38c0.1-0.11,0.21-0.22,0.35-0.31c0.14-0.09,0.29-0.16,0.46-0.21c0.27-0.08,0.48-0.08,0.64-0.01
		c0.16,0.07,0.26,0.2,0.31,0.4l-0.62,0.18c-0.03-0.08-0.07-0.13-0.13-0.15c-0.06-0.01-0.14-0.01-0.23,0.02
		c-0.15,0.04-0.27,0.13-0.35,0.25c-0.08,0.12-0.13,0.27-0.15,0.44c-0.01,0.18,0.01,0.3,0.08,0.38c0.07,0.08,0.18,0.09,0.33,0.05
		c0.1-0.03,0.19-0.07,0.25-0.13c0.07-0.06,0.11-0.12,0.14-0.2L106.26,112.73z"/>
	<path d="M107.89,111.53c0.01-0.07,0.03-0.15,0.07-0.23c0.04-0.08,0.1-0.16,0.18-0.24c0.08-0.08,0.17-0.15,0.29-0.22
		c0.11-0.07,0.25-0.12,0.4-0.17c0.15-0.04,0.28-0.07,0.4-0.07c0.11,0,0.21,0.02,0.28,0.05c0.08,0.04,0.13,0.08,0.17,0.15
		c0.04,0.07,0.06,0.14,0.07,0.22l-0.61,0.18c-0.01-0.08-0.04-0.13-0.09-0.15c-0.06-0.02-0.14-0.02-0.24,0.01
		c-0.1,0.03-0.17,0.07-0.22,0.11c-0.05,0.05-0.07,0.09-0.07,0.13c0,0.05,0.02,0.07,0.08,0.08c0.06,0.01,0.13,0.01,0.23,0
		c0.09-0.01,0.19-0.01,0.3-0.02s0.2,0,0.29,0.01c0.09,0.02,0.16,0.05,0.22,0.11c0.05,0.06,0.08,0.14,0.07,0.26
		c-0.01,0.09-0.04,0.18-0.09,0.28c-0.05,0.09-0.12,0.18-0.21,0.25c-0.09,0.08-0.19,0.15-0.31,0.21c-0.12,0.06-0.25,0.12-0.39,0.16
		c-0.14,0.04-0.27,0.06-0.39,0.07c-0.12,0-0.22-0.01-0.3-0.04c-0.08-0.03-0.15-0.08-0.2-0.14c-0.05-0.06-0.08-0.14-0.08-0.23
		l0.64-0.19c0.01,0.07,0.04,0.11,0.1,0.14c0.06,0.03,0.15,0.03,0.27-0.01c0.11-0.03,0.19-0.07,0.24-0.12
		c0.05-0.05,0.08-0.09,0.08-0.13c0-0.05-0.02-0.08-0.08-0.09c-0.06-0.01-0.13-0.01-0.23,0c-0.09,0.01-0.19,0.01-0.29,0.02
		c-0.1,0.01-0.2,0-0.29-0.02c-0.09-0.02-0.16-0.06-0.22-0.12C107.9,111.75,107.88,111.66,107.89,111.53z"/>
	<path d="M110.92,109.35l-0.22,2.69l-0.61,0.18l0.22-2.69L110.92,109.35z"/>
	<path d="M112.39,109.64c0.33-0.1,0.57-0.1,0.73,0c0.16,0.1,0.23,0.27,0.21,0.52l-0.09,1.15l-0.25,0.07l-0.15-0.18l-0.02,0
		c-0.09,0.11-0.2,0.2-0.33,0.28c-0.13,0.08-0.26,0.14-0.4,0.18c-0.13,0.04-0.25,0.06-0.36,0.06c-0.11,0-0.2-0.02-0.28-0.05
		c-0.08-0.03-0.14-0.08-0.17-0.15c-0.04-0.07-0.05-0.15-0.05-0.24c0.02-0.2,0.1-0.37,0.27-0.53c0.16-0.16,0.4-0.28,0.7-0.37
		c0.09-0.02,0.18-0.05,0.27-0.07c0.1-0.02,0.18-0.03,0.25-0.04l0-0.05c0.01-0.1-0.01-0.17-0.07-0.22s-0.15-0.04-0.28,0
		c-0.09,0.02-0.16,0.06-0.22,0.11c-0.06,0.05-0.11,0.11-0.14,0.17l-0.63,0.18c0.03-0.08,0.07-0.17,0.13-0.25
		c0.06-0.08,0.13-0.16,0.21-0.24s0.18-0.14,0.29-0.2C112.14,109.72,112.26,109.68,112.39,109.64z M112.19,111.26
		c0.14-0.04,0.26-0.11,0.34-0.2c0.09-0.09,0.14-0.19,0.14-0.29l0.01-0.14c-0.15,0.01-0.31,0.04-0.45,0.08
		c-0.25,0.07-0.38,0.2-0.39,0.39c-0.01,0.08,0.02,0.14,0.08,0.17C111.99,111.29,112.08,111.29,112.19,111.26z"/>
	<path d="M115.15,108.83c0.16-0.05,0.29-0.06,0.4-0.04c0.11,0.02,0.2,0.07,0.27,0.14c0.07,0.07,0.11,0.16,0.14,0.27
		c0.03,0.11,0.03,0.23,0.02,0.36c-0.01,0.13-0.04,0.25-0.08,0.38c-0.04,0.13-0.1,0.25-0.18,0.36c-0.08,0.11-0.17,0.22-0.29,0.3
		c-0.11,0.09-0.25,0.15-0.4,0.2c-0.11,0.03-0.22,0.05-0.31,0.04c-0.1,0-0.18-0.03-0.25-0.08l-0.02,0l-0.07,0.88l-0.61,0.18
		l0.22-2.64l0.25-0.07l0.18,0.22l0.02,0c0.09-0.13,0.2-0.24,0.33-0.32C114.87,108.94,115,108.87,115.15,108.83z M114.89,110.42
		c0.09-0.03,0.16-0.06,0.22-0.11c0.06-0.05,0.11-0.11,0.14-0.17c0.04-0.06,0.06-0.13,0.08-0.2c0.02-0.07,0.03-0.14,0.03-0.2
		c0.01-0.07,0-0.13,0-0.19c-0.01-0.06-0.02-0.12-0.05-0.16c-0.03-0.04-0.07-0.07-0.12-0.09c-0.05-0.02-0.12-0.01-0.21,0.01
		c-0.09,0.02-0.16,0.06-0.21,0.11c-0.06,0.05-0.1,0.11-0.14,0.17s-0.06,0.13-0.08,0.2c-0.02,0.07-0.03,0.14-0.04,0.2
		c-0.01,0.06,0,0.13,0,0.19c0.01,0.06,0.03,0.12,0.05,0.16c0.03,0.04,0.07,0.08,0.12,0.09C114.74,110.45,114.8,110.45,114.89,110.42
		z"/>
</g>
<g>
	<path class="st21" d="M101.74,88.24c-2.37-8.62-5.2-17.09-8.24-25.49c0.2,0.4,0.39,0.8,0.67,1.38c0.5-2.79,0.5-5.4,0.43-8.04
		c0.13,1.59,0.14,3.2,0.43,4.75c0.22,1.2-0.03,2.3-0.29,3.65c0.44-0.39,0.72-0.63,0.99-0.87c0.05,0.05,0.1,0.11,0.15,0.16
		c-0.41,0.4-0.82,0.8-1.21,1.18c1.61,4.19,3.25,8.45,4.91,12.74c1.44-0.58,2.92-1.16,4.1-2.25c0.21-0.2,0.35-0.68,0.27-0.96
		c-0.54-1.83-1.07-3.67-1.75-5.45c-0.97-2.56-2.01-5.11-3.13-7.61c-1.04-2.32-2.45-4.43-4.08-6.39c-1.99-2.39-4.68-3.17-7.63-3.39
		c-0.45-0.03-0.91-0.04-1.22-0.06c-0.28,1.67-0.43,3.34-0.85,4.94c-0.42,1.59-1.1,3.1-1.7,4.73c1.35,0.85,0.9,2.1,0.43,3.2
		c-1.46,3.38-3,6.74-4.57,10.08c-0.92,1.96-1.93,3.87-2.91,5.83c3.96,1.97,8.41,1.65,13.09,1.11c-4.21,1.25-8.74,1.33-13.58-0.91
		c-0.19,0.3-0.46,0.59-0.58,0.93c-0.65,1.91-2.05,3.11-3.79,3.97c-0.76,0.38-0.96,0.77-0.69,1.64c0.9,2.92,1.69,5.87,2.52,8.81
		c0.04,0.14,0.12,0.28,0.18,0.42c-0.29,0.08-0.59,0.17-0.88,0.25c-0.76-2.66-1.53-5.32-2.28-7.98c-0.4-1.42-0.51-1.5-1.97-1.26
		c-0.03,0-0.05,0.01-0.08,0.01c-0.94,0.21-1.28,0.61-1.07,1.45c0.71,2.91,1.45,5.81,2.18,8.72c-0.44,0.13-0.88,0.25-1.32,0.38
		c-0.49-1.82-1.01-3.62-1.47-5.45c-0.33-1.28-0.58-2.57-0.87-3.85c-1.99,0.94-3.9,1.85-5.81,2.76c-0.52-0.8-0.48-0.85,0.25-1.21
		c1.86-0.92,3.73-1.85,5.55-2.84c1.96-1.06,3.86-2.22,5.82-3.28c1.12-0.61,1.87-1.56,2.48-2.62c1.67-2.88,3.29-5.8,4.99-8.67
		c1.25-2.11,2.18-4.36,3.1-6.62c0.19-0.47,0.41-0.95,0.7-1.35c0.55-0.75,0.43-1.6,0.44-2.42c0-0.2-0.28-0.47-0.5-0.61
		c-1.79-1.2-3.75-1.67-5.87-1.21c-0.27,0.06-0.57,0.32-0.72,0.57c-1.88,2.97-3.82,5.9-6.25,8.46c-1.42,1.5-2.93,2.93-4.45,4.33
		c-0.28,0.26-0.79,0.39-1.19,0.39c-1.14,0-1.29,0.08-1.46,1.2c2.57,1.39,3.78,3.2,3.22,4.92c-0.32-0.74-0.52-1.5-0.94-2.11
		c-0.48-0.69-1.1-1.32-1.76-1.85c-0.67-0.55-1.46-0.64-2.37-0.38c-1.71,0.48-3.46,0.81-5.23,1.21c-0.1-0.33-0.17-0.59-0.26-0.91
		c1.63-0.38,3.23-0.75,4.85-1.13c-0.6-5.05-1.26-10.05,1.08-14.85c-0.87-0.21-3.45-0.97-5.16-3.42c-0.65-0.93-1-1.86-1.19-2.57
		c-0.1-0.06-0.4-0.2-0.61-0.08c-0.15,0.09-0.17,0.29-0.21,0.55c-0.06,0.36-0.17,0.72-0.23,1.08c0,0-0.22,1.23-1.38,2.04
		c-0.41,0.29-0.67,0.27-0.78,0.24c-0.09-0.02-0.17-0.06-0.21-0.08c-0.04-0.07-0.09-0.18-0.12-0.32c-0.04-0.21-0.01-0.38,0.02-0.51
		c0.29-1.18,0.68-1.79,0.68-1.79c0.82-1.3,2.25-2.02,2.58-2.18c0.13-1,0.04-1.81-0.05-2.34c-0.13-0.72-0.4-2.28-1.24-2.5
		c-0.06-0.02-0.29,0.01-0.74,0.06c-0.93,0.11-1.16,0.16-1.63,0.17c-0.92,0.02-1.11-0.15-1.19-0.24c-0.14-0.16-0.16-0.35-0.18-0.5
		c0-0.03-0.07-0.7,0.37-1.19c0.52-0.56,1.4-0.51,2.15-0.47c0.31,0.02,0.57,0.06,0.73,0.09c0.77-3.89,1.41-4.57,4.06-4.19
		c-0.11-0.6-0.16-1.17-0.32-1.71c-1.67-5.52-0.33-10.15,4.05-13.9c0.11-0.1,0.21-0.22,0.44-0.45c-0.03-0.06-0.79-1.49-1.79-2.2
		c-0.57-0.41-1.07-0.6-1.07-0.6c-0.1-0.04-0.21-0.07-0.47-0.17c-0.78-0.29-0.83-0.36-0.83-0.4c0-0.06,0.1-0.14,0.58-0.22
		c0.41-0.02,0.94-0.01,1.49,0.21c1.3,0.51,1.95,1.84,2.78,2.95c0.47-0.28,0.92-0.55,1.57-0.93c-0.87-1.61-1.73-3.21-2.6-4.82
		c0.42,0.31,0.83,0.61,1.25,0.92c0.31,0.3,0.65,0.68,0.98,1.15c0.62,0.88,0.94,1.74,1.12,2.37c0.63-0.26,1.26-0.52,1.93-0.79
		c-0.33-1.51-1.42-2.59-2.15-3.88c1.96,0.43,2.22,2.26,3.11,3.61c0.28-0.08,0.59-0.17,0.88-0.26c-0.18-0.69-0.33-1.54-0.39-2.52
		c-0.05-0.8-0.02-1.52,0.05-2.13c0.11-0.4,0.34-1.14,0.5-1.12c0.14,0.02,0.17,0.62,0.18,1.04c0.02,0.36,0.05,0.66,0.06,0.85
		c0.25,3.2,0.3,2.41,0.38,3c0.05,0.31-0.02,0.76,0.58,0.68c0.51-0.07,0.52-0.36,0.56-0.78c0.1-0.98,0.23-1.97,0.48-2.91
		c0.3-1.13,0.86-1.66,2.03-2.22c0.44-0.17,1.41-0.52,1.49-0.36c0.08,0.16-0.81,0.77-1.2,1.03c-0.37,0.29-1.32,0.95-1.67,2.21
		c-0.24,0.86-0.26,1.82-0.31,2.79c0.87-0.02,1.67-0.03,2.51-0.05c0.18-2.05,0.29-4.13,2.53-5.28c1.16-0.47,1.44-0.47,1.48-0.39
		c0.05,0.08-0.11,0.34-1.25,1.18c-0.33,0.24-1.19,0.84-1.56,1.98c-0.26,0.81-0.3,1.71-0.27,2.55c0.83,0.09,1.67,0.18,2.51,0.27
		c0.58-3.9,0.94-4.68,2.39-5.18c0.15-0.05,1.07-0.34,1.15-0.18c0.08,0.17-0.8,0.75-0.92,0.83c-0.34,0.27-1.17,0.91-1.48,2.08
		c-0.21,0.79-0.2,1.64-0.22,2.48c1.43,0.53,2.85,0.96,4.17,1.57c2.31,1.07,4.24,2.65,5.39,4.96c0.46,0.93,0.58,2.03,0.87,3.05
		c0.18,0.62,0.25,1.37,0.64,1.83c1.25,1.46,1.4,3.14,1.27,4.92c-0.25,3.38-1.79,6.21-3.79,8.84c-0.29,0.38-0.62,0.74-0.89,1.14
		c-0.12,0.18-0.25,0.5-0.17,0.64c0.09,0.16,0.4,0.25,0.63,0.27c0.66,0.06,1.32,0.08,1.97,0.11c4.44,0.18,7.53,2.49,9.9,6.08
		c1.85,2.82,3.35,5.8,4.48,8.96c1.07,2.99,2.1,6,3.09,9.02c0.45,1.37,0.38,1.4-0.82,2.25c-0.2,0.14-0.41,0.28-0.55,0.38
		c1.07,3.26,2.13,6.47,3.18,9.69c-0.44,0.13-0.88,0.25-1.32,0.38c-1.08-3.22-2.15-6.45-3.27-9.78c-0.83,0.42-1.57,0.8-2.31,1.17
		c-0.42,0.21-0.44,0.51-0.3,0.94c0.9,2.86,1.77,5.73,2.64,8.6C102.33,88.07,102.03,88.15,101.74,88.24z M79.55,38.43
		c0.05,0.04,0.1,0.08,0.14,0.13c-1.03,1.17-2.05,2.35-3.09,3.54c0.88,0.41,1.49,0.29,2.02-0.49c0.41-0.6,1.01-1.06,1.53-1.58
		c0.05,0.05,0.1,0.1,0.14,0.14c-0.66,0.78-1.32,1.56-1.98,2.34c0,0.07,0,0.14,0,0.2c2.57-0.47,3.97,1.03,5.13,3.01
		c0.75-1,1.48-1.88,2.11-2.83c1.18-1.78,1.02-3.07-0.49-4.55c-0.09-0.09-0.18-0.2-0.35-0.39c1.35,0.54,2.09,1.77,1.93,3.16
		c-0.17,1.39-0.82,2.64-1.84,3.51c-1.16,1.01-1.37,1.93-0.46,3.14c0.03,0.04,0.08,0.05,0.23,0.16c0.56-0.83,1.17-1.63,1.68-2.5
		c1.32-2.23,2.38-4.55,2.31-7.24c-0.05-1.99-0.8-3.47-2.68-4.31c-0.4-0.18-0.74-0.49-1.11-0.74c0.02-0.06,0.04-0.12,0.05-0.17
		c0.73-0.08,1.45-0.16,2.18-0.24c-0.83-3.72-5.48-7.7-8.97-7.74c-0.02,0.74-0.22,1.24-0.47,1.26c-0.21,0.02-0.42-0.31-0.5-0.46
		c0.06-0.11,0.31-0.58,0.11-0.91c-0.07-0.12-0.19-0.19-0.29-0.23c-0.66-0.3-2.09-0.31-2.38-0.31c0.15,0.34,0.12,0.73-0.1,1.01
		c-0.26,0.34-0.66,0.37-0.72,0.37c0.05-0.13,0.2-0.58-0.01-1.03c0,0-0.04-0.36-0.28-0.37c-0.74-0.02-1.49,0-2.22,0.01
		c0,0.18-0.01,0.37-0.03,0.58c-0.07,0.53-0.23,0.97-0.38,1.28c-0.11-0.39-0.25-0.77-0.33-1.16c-0.13-0.65-0.45-0.7-0.97-0.36
		c-0.03,0.23-0.05,0.47-0.08,0.7c-0.08,0.46-0.17,0.92-0.25,1.38c-0.2-0.69-0.39-1.34-0.58-2c-0.28,0.08-0.49,0.14-0.78,0.22
		c0.1,0.7,0.2,1.41,0.3,2.11c-0.14-0.13-0.28-0.28-0.42-0.45c-0.41-0.49-0.68-0.98-0.86-1.39c-0.38,0.15-0.82,0.34-1.27,0.49
		c-0.3,0.1-0.5,0.24-0.57,0.42c-0.1,0.23,0.02,0.48,0.09,0.66c0.14,0.34,0.28,0.85,0.29,1.58c-0.27-0.43-0.54-0.86-0.81-1.29
		c-0.13-0.2-0.26-0.41-0.39-0.61c-0.07,0.01-0.82,0.13-1.16,0.8c-0.29,0.59-0.14,1.34,0.39,1.84c-0.11-0.02-0.8-0.19-1.11-0.81
		c-0.1-0.21-0.13-0.4-0.14-0.55c-0.05,0.05-0.13,0.13-0.23,0.23c-0.9,0.91-2.86,2.81-3.58,5.19c-0.35,1.17-0.49,2.43-0.37,3.79
		c0.18,2.07,0.67,4.12,1.05,6.31c0.48-0.03,1.08-0.08,1.67-0.08c0.21,0,0.46,0.06,0.61,0.19c0.07,0.07,0.01,0.39-0.09,0.53
		c-0.63,0.85-2.08,0.99-2.91,0.35c-0.33-0.26-0.72-0.5-1.12-0.62c-1.19-0.37-2.15,0.19-2.6,1.45c-0.51,1.44-0.39,1.75,0.98,2.33
		c0.03,0.01,0.09-0.01,0.16-0.03c-0.22-0.78,0.29-1.02,0.93-1.22c0.22,0.05,0.59,0.17,0.92,0.47c0.12,0.11,0.31,0.31,0.58,0.88
		c0.25,0.52,0.34,0.88,0.45,1.22c0.49,1.54,1.03,1.76,0.92,2.58c-0.02,0.18-0.09,0.58-0.42,0.84c-0.31,0.24-0.68,0.22-0.8,0.21
		c-1.03-0.06-1.63-1.41-1.66-1.48c-0.34-0.51-0.57-0.94-0.72-1.24c-0.14-0.29-0.33-0.57-0.44-0.88c-0.09-0.24-0.12-0.39-0.26-0.48
		c-0.21-0.14-0.52-0.04-0.72,0.05c0.43,1.95,1.59,3.36,3.14,4.45c0.24,0.17,0.67,0.26,0.93,0.16c1.05-0.4,1.85-1.12,2.05-2.27
		c0.11-0.62,0.29-1,0.95-1.11c0.54-0.09,1.07-0.27,1.7,0.27c-0.43,0.13-0.73,0.26-1.04,0.29c-0.81,0.08-1.11,0.65-1.35,1.29
		c-0.32,0.84-0.61,1.68-0.96,2.65c-0.02-0.03,0.08,0.12,0.19,0.25c0.12,0.13,0.24,0.26,0.37,0.38c1.83,1.67,3.97,1.89,6.28,1.38
		c0.81-0.18,1.61-0.39,2.42-0.58c-0.02,0.19-0.08,0.29-0.16,0.31c-1.46,0.34-2.9,0.8-4.37,0.98c-1.95,0.24-3.61-0.49-4.74-2.14
		c-0.32-0.47-0.69-0.68-1.21-0.76c-0.66-0.1-1.31-0.23-1.96-0.35c0.12,1.45,0.83,2.69,2.06,3.63c1.7,1.29,3.65,1.88,5.77,1.88
		c3.07,0.01,5.91-0.92,8.63-2.24c1.24-0.6,2.43-1.33,3.72-2.04c-0.3-0.41-0.43-0.76-0.69-0.9c-0.21-0.11-0.56,0.05-0.94,0.1
		c0.24-0.25,0.41-0.43,0.68-0.71c-1.03-0.47-1.98-0.88-2.91-1.33c-0.27-0.13-0.68-0.4-0.67-0.59c0.03-0.39,0.19-0.87,0.48-1.11
		c0.9-0.75,2.01-0.78,2.91-0.13c0.77,0.56,1.58,0.61,2.47,0.7c0.06-0.24,0.08-0.49,0.18-0.72c0.41-1.02,0.01-1.73-0.79-2.36
		c-1.26-0.99-2.49-2.02-3.79-3.08c-0.43,0.64-0.78,1.15-1.12,1.67c-0.06-0.03-0.13-0.07-0.19-0.1c0.38-0.52,0.76-1.05,1.08-1.49
		c-0.52-0.38-0.9-0.59-1.19-0.89c-0.27-0.29-0.28-0.63,0.13-0.89c0.66-0.42,1.3-0.85,1.85-1.22c-0.11,0.17-0.29,0.46-0.47,0.74
		c0.04,0.03,0.08,0.07,0.12,0.1c0.97-1.17,1.94-2.33,2.9-3.5c0.06,0.05,0.12,0.09,0.17,0.14c-0.47,0.65-0.94,1.29-1.41,1.94
		c0.02,0.02,0.05,0.03,0.07,0.05c1.1-1.13,2.21-2.25,3.31-3.38c0.04,0.04,0.08,0.08,0.12,0.12c-1.2,1.38-2.4,2.76-3.59,4.14
		c0.06,0.08,0.13,0.16,0.19,0.23c0.26-0.17,0.58-0.29,0.78-0.51C77.6,40.67,78.57,39.54,79.55,38.43z M75.93,59.47
		c-0.75-0.2-1.45-0.25-2-0.56c-0.65-0.36-1.17-0.17-1.74,0.05c-2.4,0.94-4.87,1.8-7.44,1.7c-1.62-0.07-2.12,0.74-2.55,1.92
		c-0.1,0.29-0.2,0.58-0.27,0.87c-0.63,2.52-0.62,5.07-0.44,7.63c0.09,1.27,0.29,2.52,0.44,3.79c0.38-0.2,0.52-0.48,0.75-0.64
		c0.52-0.39,1.08-1.02,1.61-1.01c1.1,0.02,1.25-1.01,1.86-1.2c-0.61-1.04-1.19-1.98-1.71-2.96c-0.59-1.1-1.13-2.22-1.7-3.33
		c1.91,3.19,3.47,5.37,4.24,5.66c0.03-0.09,0.09-0.19,0.08-0.28c-0.03-0.4-0.07-0.8-0.13-1.39c0.16,0.54,0.26,0.89,0.4,1.37
		C70.79,67.59,73.36,63.54,75.93,59.47z M82.8,60.77c0.53-1.36,1.04-2.68,1.57-4c1.64-4.09,0.52-7.63-2.17-10.85
		c-0.02-0.03-0.08-0.03-0.12-0.04c-0.02,0.11-0.04,0.22-0.08,0.43c-1.63-1.7-3.33-3.16-5.92-3.29c1.6,1.01,3.24,1.78,4.12,3.44
		c-0.54-0.3-1.03-0.64-1.49-1.04c-1.32-1.14-2.88-1.8-4.5-2.37c-0.62-0.22-1.17-0.14-1.56,0.56c0.16,0.07,0.26,0.13,0.38,0.16
		c2.41,0.62,4.12,2.25,5.7,4.03c0.72,0.81,0.49,3.14-0.29,3.91c-0.37,0.37-1.28,0.47-1.26,0.19c0.02-0.4-0.22-0.29-0.38-0.39
		c-0.28-0.17-0.54-0.36-0.81-0.54c-0.33-0.22-0.64-0.51-1.01-0.66c-0.83-0.33-1.91,0.07-2.17,0.76c0.27,0.06,0.55,0.1,0.81,0.18
		c1.2,0.35,2.37,0.69,3.03,1.95c0.45,0.85,1.12,1.58,1.71,2.38c0.27-0.23,0.41-0.35,0.56-0.48c0.04,0.03,0.09,0.06,0.13,0.09
		c-0.58,1.47-1.17,2.94-1.76,4.44C79.21,59.52,81.03,59.73,82.8,60.77z M78.06,56.15c-0.06-0.06-0.12-0.11-0.18-0.17
		c-1.26,0.72-2.51,1.43-3.91,2.23c0.55,0.15,0.99,0.31,1.44,0.37c0.36,0.05,0.91,0.11,1.07-0.08
		C77.08,57.78,77.54,56.95,78.06,56.15z M53.9,55.44c0.16-0.3,0.08-0.59-0.05-0.66c-0.13-0.07-0.42,0.05-0.56,0.37
		c-0.17,0.2-0.34,0.44-0.51,0.73c-0.24,0.42-0.39,0.8-0.49,1.12c-0.19,0.34-0.19,0.64-0.08,0.7c0.1,0.06,0.31-0.04,0.5-0.23
		c0.11-0.08,0.24-0.2,0.38-0.35c0.09-0.1,0.26-0.29,0.41-0.55C53.75,56.16,53.85,55.73,53.9,55.44z"/>
	<path class="st21" d="M54.13,40.88c-0.13,0.07-0.31,0.16-0.55,0.25c-0.3,0.11-1.13,0.41-2.16,0.2c-0.37-0.08-0.89-0.18-1.33-0.62
		c-0.31-0.31-0.42-0.64-0.46-0.74c-0.3-0.87,0.04-1.34,0.97-1.27c1.84,0.13,3.14,1.64,3.21,1.73
		C53.96,40.61,54.06,40.77,54.13,40.88z M53.06,40.53c-1.04-0.94-2-1.31-2.87-1.11C50.14,40.69,51.74,40.86,53.06,40.53z"/>
	<path class="st21" d="M52.58,51.78c-0.81,0.14-1.43-0.21-1.52-0.62c-0.05-0.26,0.12-0.54,0.28-0.69c0.37-0.33,0.92-0.19,1.18-0.13
		c0.13,0.03,0.22,0.08,0.27,0.12c0.04,0.03,0.16,0.11,0.24,0.27c0.11,0.2,0.12,0.49-0.02,0.72C52.88,51.69,52.64,51.76,52.58,51.78z
		 M51.42,50.77c-0.02,0.02-0.09,0.08-0.1,0.18c-0.02,0.16,0.1,0.27,0.11,0.28c0.22,0.15,0.42,0.21,0.54,0.24
		c0.17,0.04,0.43,0.09,0.66-0.05c0.04-0.02,0.12-0.08,0.17-0.18c0.09-0.17,0.03-0.34,0.02-0.38c-0.05-0.04-0.47-0.41-0.99-0.29
		C51.64,50.6,51.5,50.7,51.42,50.77z"/>
	<path class="st21" d="M66.81,81.08c0.01-0.79,0.03-1.58,0.04-2.37c0.06,0,0.12,0,0.18,0c0,0.79-0.01,1.58-0.01,2.36
		C66.95,81.07,66.88,81.08,66.81,81.08z"/>
	<path class="st21" d="M88.34,76.21c-1.35,1.07-2.92,1.85-4.29,2.16C85.28,77.75,86.84,76.96,88.34,76.21z"/>
	<path class="st21" d="M86,83.8c1.53-0.31,3.05-0.63,4.65-0.96c-0.81,0.23-1.55,0.49-2.3,0.65c-0.76,0.17-1.54,0.26-2.31,0.38
		C86.03,83.85,86.02,83.82,86,83.8z"/>
	<path class="st21" d="M66.7,41.45c-0.76,0.08-1.67,0.15-2.58,0.28c-0.24,0.03-0.47,0.19-0.68,0.32c-0.62,0.39-0.92,0.95-0.81,1.68
		c0.12,0.76,0.7,1.1,1.37,1.26c1.83,0.44,4.5-0.7,5.52-2.25c0.57-0.87,1.22-1.67,1.91-2.61c-0.96-0.02-1.29,0.89-1.99,1.11
		c-0.13-1.3,1.15-2.36,2.31-1.86c0.43,0.18,0.59-0.02,0.84-0.23c2.02-1.72,3.81-2.63,5.96-2.88c-0.32,0.15-0.64,0.3-0.95,0.46
		c-3.16,1.56-5.54,3.88-7.4,6.91c-1.43,2.34-2.31,4.72-2.34,7.43c0,0.4,0.06,0.81,0.07,1.22c0,0.11-0.09,0.31-0.13,0.31
		c-0.13-0.01-0.34-0.05-0.38-0.14c-0.13-0.33-0.25-0.67-0.28-1.02c-0.18-1.72,0.1-3.39,0.63-5.03c0.1-0.31,0.21-0.62,0.36-1.06
		c-0.75,0.22-1.39,0.41-2.04,0.59c-1.08,0.3-2.1,0.17-3.08-0.41c-0.86-0.51-1.29-1.35-1.16-2.36c0.12-0.99,0.81-1.93,1.76-2.04
		c1.53-0.18,2.25-1.11,2.96-2.37c0.72-1.3,1.11-2.58,0.88-4.21c1.09,0.76,0.8,1.7,0.62,2.45c-0.19,0.79-0.72,1.49-1.11,2.24
		c0.12,0.1,0.27,0.24,0.4,0.36c-0.39,0.33-0.9,0.58-1.05,0.96C66.22,40.78,66.6,41.24,66.7,41.45z"/>
	<path class="st21" d="M81.8,31.74c-1.05-0.01-2.74,0.1-4.62,0.89c-1.16,0.49-2.52,1.06-3.62,2.43c-0.82,1.01-1.25,2.18-1.74,2.07
		c-0.3-0.06-0.44-0.58-0.47-0.67c-0.07-0.28-0.09-0.7,0.32-1.45c0.2-0.36,0.63-1.05,1.74-1.92c0.98-0.77,1.84-1.19,2.04-1.28
		c1.19-0.56,3.48-1.64,5.42-0.7C81.3,31.31,81.61,31.56,81.8,31.74z"/>
	<path class="st21" d="M60.73,35.74c0.33-0.13,0.97-0.34,1.77-0.26c0.76,0.07,1.29,0.36,1.4,0.42c0.26,0.14,0.44,0.29,0.8,0.58
		c0.38,0.3,0.45,0.41,0.49,0.47c0.25,0.42,0.21,0.98,0.07,1.03c-0.13,0.04-0.23-0.39-0.75-0.75c-0.3-0.21-0.59-0.29-0.84-0.36
		c-0.42-0.12-0.75-0.12-1.1-0.13c-0.7-0.02-1.21,0.09-1.35,0.12c-0.4,0.09-0.65,0.14-0.94,0.3c-0.6,0.33-0.76,0.78-0.9,0.72
		c-0.16-0.07-0.12-0.79,0.23-1.33C59.96,36.01,60.5,35.81,60.73,35.74z"/>
	<path class="st21" d="M67.88,30.49c0.9-2.09,2.7-3.11,4.74-3.62c1.93-0.48,3.91-0.49,5.57,1.06
		C74.16,26.48,70.75,27.34,67.88,30.49z"/>
	<path class="st21" d="M60.02,31.86c0.64-1.12,1.63-1.61,2.78-1.63c1.19-0.02,1.95,0.72,2.43,1.88
		C63.55,30.44,61.82,30.45,60.02,31.86z"/>
	<path class="st21" d="M74.43,53.15c-1.81,2.18-4.13,3.45-6.84,4.02c1.18-0.6,2.39-1.14,3.53-1.81
		C72.26,54.69,73.33,53.89,74.43,53.15z"/>
	<path class="st21" d="M69.62,33.45c0.17-2.21,1.85-4.21,3.75-4.48C71.64,30.07,70.3,31.48,69.62,33.45z"/>
	<path class="st21" d="M84.95,36.2c1.93-0.14,3.72,2.17,2.55,4.09C87.76,38.24,87.03,36.8,84.95,36.2z"/>
	<path class="st21" d="M81.75,37.74c-1.34,1.32-2.67,2.64-4.01,3.96c-0.04-0.04-0.09-0.08-0.13-0.13c1.31-1.35,2.62-2.69,3.93-4.04
		C81.61,37.61,81.68,37.68,81.75,37.74z"/>
	<path class="st21" d="M64.7,42.55c-0.04,0.03-0.35,0.28-0.34,0.66c0.01,0.3,0.2,0.49,0.32,0.61c0.12,0.12,0.43,0.42,0.81,0.34
		c0.15-0.03,0.3-0.15,0.45-0.4c0.08-0.09,0.15-0.18,0.23-0.27c-0.01,0.07-0.09,0.8-0.59,1.03c-0.65,0.3-1.52-0.45-1.69-1.12
		C63.76,42.93,63.93,42.61,64.7,42.55z"/>
	<path class="st21" d="M81.4,28.19c0.77-0.16,2.08,0.56,2.56,1.32C83.32,29.17,82.27,28.64,81.4,28.19z"/>
	<path class="st21" d="M60.77,57.27c1.37,0.27,2.7,0.53,4,0.78C63.36,58.37,62.03,58.02,60.77,57.27z"/>
	<path class="st21" d="M67.02,43.7c0.05-0.05,0.25-0.28,0.21-0.57c-0.04-0.27-0.26-0.43-0.44-0.55c-0.24-0.17-0.49-0.22-0.63-0.24
		c0.04-0.03,0.51-0.34,0.99-0.14c0.47,0.19,0.78,0.79,0.57,1.23c-0.16,0.35-0.57,0.44-0.64,0.45C67.05,43.82,67.04,43.76,67.02,43.7
		z"/>
	<path class="st21" d="M63.33,38.33c-0.96,0.01-1.93,0.01-2.89,0.02C61.39,37.87,62.37,37.96,63.33,38.33z"/>
	<path class="st21" d="M63.34,32.24c1.03-0.06,1.36,0.16,1.67,1.09C64.42,32.95,63.91,32.61,63.34,32.24z"/>
	<path class="st2" d="M50.84,47.27c-0.04,0.03-0.16,0.12-0.2,0.25c-0.06,0.21,0.14,0.33,0.15,0.34c0.36,0.16,0.7,0.21,0.91,0.22
		c0.29,0.02,0.75,0.05,1.16-0.17c0.07-0.04,0.22-0.12,0.33-0.26c0.18-0.23,0.11-0.44,0.09-0.49c-0.08-0.05-0.76-0.45-1.68-0.22
		C51.25,47.02,51,47.17,50.84,47.27z"/>
</g>
<g>
	<path class="st21" d="M76.53,159.03c2.37,8.62,5.2,17.09,8.24,25.49c-0.2-0.4-0.39-0.8-0.67-1.38c-0.5,2.79-0.5,5.4-0.43,8.04
		c-0.13-1.59-0.14-3.2-0.43-4.75c-0.22-1.2,0.03-2.3,0.29-3.65c-0.44,0.39-0.72,0.63-0.99,0.87c-0.05-0.05-0.1-0.11-0.15-0.16
		c0.41-0.4,0.82-0.8,1.21-1.18c-1.61-4.19-3.25-8.45-4.91-12.74c-1.44,0.58-2.92,1.16-4.1,2.25c-0.21,0.2-0.35,0.68-0.27,0.96
		c0.54,1.83,1.07,3.67,1.75,5.45c0.97,2.56,2.01,5.11,3.13,7.61c1.04,2.32,2.45,4.43,4.08,6.39c1.99,2.39,4.68,3.17,7.63,3.39
		c0.45,0.03,0.91,0.04,1.22,0.06c0.28-1.67,0.43-3.34,0.85-4.94c0.42-1.59,1.1-3.1,1.7-4.73c-1.35-0.85-0.9-2.1-0.43-3.2
		c1.46-3.38,3-6.74,4.57-10.08c0.92-1.96,1.93-3.87,2.91-5.83c-3.96-1.97-8.41-1.65-13.09-1.11c4.21-1.25,8.74-1.33,13.58,0.91
		c0.19-0.3,0.46-0.59,0.58-0.93c0.65-1.91,2.05-3.11,3.79-3.97c0.76-0.38,0.96-0.77,0.69-1.64c-0.9-2.92-1.69-5.87-2.52-8.81
		c-0.04-0.14-0.12-0.28-0.18-0.42c0.29-0.08,0.59-0.17,0.88-0.25c0.76,2.66,1.53,5.32,2.28,7.98c0.4,1.42,0.51,1.5,1.97,1.26
		c0.03,0,0.05-0.01,0.08-0.01c0.94-0.21,1.28-0.61,1.07-1.45c-0.71-2.91-1.45-5.81-2.18-8.72c0.44-0.13,0.88-0.25,1.32-0.38
		c0.49,1.82,1.01,3.62,1.47,5.45c0.33,1.28,0.58,2.57,0.87,3.85c1.99-0.94,3.9-1.85,5.81-2.76c0.52,0.8,0.48,0.85-0.25,1.21
		c-1.86,0.92-3.73,1.85-5.55,2.84c-1.96,1.06-3.86,2.22-5.82,3.28c-1.12,0.61-1.87,1.56-2.48,2.62c-1.67,2.88-3.29,5.8-4.99,8.67
		c-1.25,2.11-2.18,4.36-3.1,6.62c-0.19,0.47-0.41,0.95-0.7,1.35c-0.55,0.75-0.43,1.6-0.44,2.42c0,0.2,0.28,0.47,0.5,0.61
		c1.79,1.2,3.75,1.67,5.87,1.21c0.27-0.06,0.57-0.32,0.72-0.57c1.88-2.97,3.82-5.9,6.25-8.46c1.42-1.5,2.93-2.93,4.45-4.33
		c0.28-0.26,0.79-0.39,1.19-0.39c1.14,0,1.29-0.08,1.46-1.2c-2.57-1.39-3.78-3.2-3.22-4.92c0.32,0.74,0.52,1.5,0.94,2.11
		c0.48,0.69,1.1,1.32,1.76,1.85c0.67,0.55,1.46,0.64,2.37,0.38c1.71-0.48,3.46-0.81,5.23-1.21c0.1,0.33,0.17,0.59,0.26,0.91
		c-1.63,0.38-3.23,0.75-4.85,1.13c0.6,5.05,1.26,10.05-1.08,14.85c0.87,0.21,3.45,0.97,5.16,3.42c0.65,0.93,1,1.86,1.19,2.57
		c0.1,0.06,0.4,0.2,0.61,0.08c0.15-0.09,0.17-0.29,0.21-0.55c0.06-0.36,0.17-0.72,0.23-1.08c0,0,0.22-1.23,1.38-2.04
		c0.41-0.29,0.67-0.27,0.78-0.24c0.09,0.02,0.17,0.06,0.21,0.08c0.04,0.07,0.09,0.18,0.12,0.32c0.04,0.21,0.01,0.38-0.02,0.51
		c-0.29,1.18-0.68,1.79-0.68,1.79c-0.82,1.3-2.25,2.02-2.58,2.18c-0.13,1-0.04,1.81,0.05,2.34c0.13,0.72,0.4,2.28,1.24,2.5
		c0.06,0.02,0.29-0.01,0.74-0.06c0.93-0.11,1.16-0.16,1.63-0.17c0.92-0.02,1.11,0.15,1.19,0.24c0.14,0.16,0.16,0.35,0.18,0.5
		c0,0.03,0.07,0.7-0.37,1.19c-0.52,0.56-1.4,0.51-2.15,0.47c-0.31-0.02-0.57-0.06-0.73-0.09c-0.77,3.89-1.41,4.57-4.06,4.19
		c0.11,0.6,0.16,1.17,0.32,1.71c1.67,5.52,0.33,10.15-4.05,13.9c-0.11,0.1-0.21,0.22-0.44,0.45c0.03,0.06,0.79,1.49,1.79,2.2
		c0.57,0.41,1.07,0.6,1.07,0.6c0.1,0.04,0.21,0.07,0.47,0.17c0.78,0.29,0.83,0.36,0.83,0.4c0,0.06-0.1,0.14-0.58,0.22
		c-0.41,0.02-0.94,0.01-1.49-0.21c-1.3-0.51-1.95-1.84-2.78-2.95c-0.47,0.28-0.92,0.55-1.57,0.93c0.87,1.61,1.73,3.21,2.6,4.82
		c-0.42-0.31-0.83-0.61-1.25-0.92c-0.31-0.3-0.65-0.68-0.98-1.15c-0.62-0.88-0.94-1.74-1.12-2.37c-0.63,0.26-1.26,0.52-1.93,0.79
		c0.33,1.51,1.42,2.59,2.15,3.88c-1.96-0.43-2.22-2.26-3.11-3.61c-0.28,0.08-0.59,0.17-0.88,0.26c0.18,0.69,0.33,1.54,0.39,2.52
		c0.05,0.8,0.02,1.52-0.05,2.13c-0.11,0.4-0.34,1.14-0.5,1.12c-0.14-0.02-0.17-0.62-0.18-1.04c-0.02-0.36-0.05-0.66-0.06-0.85
		c-0.25-3.2-0.3-2.41-0.38-3c-0.05-0.31,0.02-0.76-0.58-0.68c-0.51,0.07-0.52,0.36-0.56,0.78c-0.1,0.98-0.23,1.97-0.48,2.91
		c-0.3,1.13-0.86,1.66-2.03,2.22c-0.44,0.17-1.41,0.52-1.49,0.36c-0.08-0.16,0.81-0.77,1.2-1.03c0.37-0.29,1.32-0.95,1.67-2.21
		c0.24-0.86,0.26-1.82,0.31-2.79c-0.87,0.02-1.67,0.03-2.51,0.05c-0.18,2.05-0.29,4.13-2.53,5.28c-1.16,0.47-1.44,0.47-1.48,0.39
		c-0.05-0.08,0.11-0.34,1.25-1.18c0.33-0.24,1.19-0.84,1.56-1.98c0.26-0.81,0.3-1.71,0.27-2.55c-0.83-0.09-1.67-0.18-2.51-0.27
		c-0.58,3.9-0.94,4.68-2.39,5.18c-0.15,0.05-1.07,0.34-1.15,0.18c-0.08-0.17,0.8-0.75,0.92-0.83c0.34-0.27,1.17-0.91,1.48-2.08
		c0.21-0.79,0.2-1.64,0.22-2.48c-1.43-0.53-2.85-0.96-4.17-1.57c-2.31-1.07-4.24-2.65-5.39-4.96c-0.46-0.93-0.58-2.03-0.87-3.05
		c-0.18-0.62-0.25-1.37-0.64-1.83c-1.25-1.46-1.4-3.14-1.27-4.92c0.25-3.38,1.79-6.21,3.79-8.84c0.29-0.38,0.62-0.74,0.89-1.14
		c0.12-0.18,0.25-0.5,0.17-0.64c-0.09-0.16-0.4-0.25-0.63-0.27c-0.66-0.06-1.32-0.08-1.97-0.11c-4.44-0.18-7.53-2.49-9.9-6.08
		c-1.85-2.82-3.35-5.8-4.48-8.96c-1.07-2.99-2.1-6-3.09-9.02c-0.45-1.37-0.38-1.4,0.82-2.25c0.2-0.14,0.41-0.28,0.55-0.38
		c-1.07-3.26-2.13-6.47-3.18-9.69c0.44-0.13,0.88-0.25,1.32-0.38c1.08,3.22,2.15,6.45,3.27,9.78c0.83-0.42,1.57-0.8,2.31-1.17
		c0.42-0.21,0.44-0.51,0.3-0.94c-0.9-2.86-1.77-5.73-2.64-8.6C75.94,159.2,76.23,159.12,76.53,159.03z M98.72,208.84
		c-0.05-0.04-0.1-0.08-0.14-0.13c1.03-1.17,2.05-2.35,3.09-3.54c-0.88-0.41-1.49-0.29-2.02,0.49c-0.41,0.6-1.01,1.06-1.53,1.58
		c-0.05-0.05-0.1-0.1-0.14-0.14c0.66-0.78,1.32-1.56,1.98-2.34c0-0.07,0-0.14,0-0.2c-2.57,0.47-3.97-1.03-5.13-3.01
		c-0.75,1-1.48,1.88-2.11,2.83c-1.18,1.78-1.02,3.07,0.49,4.55c0.09,0.09,0.18,0.2,0.35,0.39c-1.35-0.54-2.09-1.77-1.93-3.16
		c0.17-1.39,0.82-2.64,1.84-3.51c1.16-1.01,1.37-1.93,0.46-3.14c-0.03-0.04-0.08-0.05-0.23-0.16c-0.56,0.83-1.17,1.63-1.68,2.5
		c-1.32,2.23-2.38,4.55-2.31,7.24c0.05,1.99,0.8,3.47,2.68,4.31c0.4,0.18,0.74,0.49,1.11,0.74c-0.02,0.06-0.04,0.12-0.05,0.17
		c-0.73,0.08-1.45,0.16-2.18,0.24c0.83,3.72,5.48,7.7,8.97,7.74c0.02-0.74,0.22-1.24,0.47-1.26c0.21-0.02,0.42,0.31,0.5,0.46
		c-0.06,0.11-0.31,0.58-0.11,0.91c0.07,0.12,0.19,0.19,0.29,0.23c0.66,0.3,2.09,0.31,2.38,0.31c-0.15-0.34-0.12-0.73,0.1-1.01
		c0.26-0.34,0.66-0.37,0.72-0.37c-0.05,0.13-0.2,0.58,0.01,1.03c0,0,0.04,0.36,0.28,0.37c0.74,0.02,1.49,0,2.22-0.01
		c0-0.18,0.01-0.37,0.03-0.58c0.07-0.53,0.23-0.97,0.38-1.28c0.11,0.39,0.25,0.77,0.33,1.16c0.13,0.65,0.45,0.7,0.97,0.36
		c0.03-0.23,0.05-0.47,0.08-0.7c0.08-0.46,0.17-0.92,0.25-1.38c0.2,0.69,0.39,1.34,0.58,2c0.28-0.08,0.49-0.14,0.78-0.22
		c-0.1-0.7-0.2-1.41-0.3-2.11c0.14,0.13,0.28,0.28,0.42,0.45c0.41,0.49,0.68,0.98,0.86,1.39c0.38-0.15,0.82-0.34,1.27-0.49
		c0.3-0.1,0.5-0.24,0.57-0.42c0.1-0.23-0.02-0.48-0.09-0.66c-0.14-0.34-0.28-0.85-0.29-1.58c0.27,0.43,0.54,0.86,0.81,1.29
		c0.13,0.2,0.26,0.41,0.39,0.61c0.07-0.01,0.82-0.13,1.16-0.8c0.29-0.59,0.14-1.34-0.39-1.84c0.11,0.02,0.8,0.19,1.11,0.81
		c0.1,0.21,0.13,0.4,0.14,0.55c0.05-0.05,0.13-0.13,0.23-0.23c0.9-0.91,2.86-2.81,3.58-5.19c0.35-1.17,0.49-2.43,0.37-3.79
		c-0.18-2.07-0.67-4.12-1.05-6.31c-0.48,0.03-1.08,0.08-1.67,0.08c-0.21,0-0.46-0.06-0.61-0.19c-0.07-0.07-0.01-0.39,0.09-0.53
		c0.63-0.85,2.08-0.99,2.91-0.35c0.33,0.26,0.72,0.5,1.12,0.62c1.19,0.37,2.15-0.19,2.6-1.45c0.51-1.44,0.39-1.75-0.98-2.33
		c-0.03-0.01-0.09,0.01-0.16,0.03c0.22,0.78-0.29,1.02-0.93,1.22c-0.22-0.05-0.59-0.17-0.92-0.47c-0.12-0.11-0.31-0.31-0.58-0.88
		c-0.25-0.52-0.34-0.88-0.45-1.22c-0.49-1.54-1.03-1.76-0.92-2.58c0.02-0.18,0.09-0.58,0.42-0.84c0.31-0.24,0.68-0.22,0.8-0.21
		c1.03,0.06,1.63,1.41,1.66,1.48c0.34,0.51,0.57,0.94,0.72,1.24c0.14,0.29,0.33,0.57,0.44,0.88c0.09,0.24,0.12,0.39,0.26,0.48
		c0.21,0.14,0.52,0.04,0.72-0.05c-0.43-1.95-1.59-3.36-3.14-4.45c-0.24-0.17-0.67-0.26-0.93-0.16c-1.05,0.4-1.85,1.12-2.05,2.27
		c-0.11,0.62-0.29,1-0.95,1.11c-0.54,0.09-1.07,0.27-1.7-0.27c0.43-0.13,0.73-0.26,1.04-0.29c0.81-0.08,1.11-0.65,1.35-1.29
		c0.32-0.84,0.61-1.68,0.96-2.65c0.02,0.03-0.08-0.12-0.19-0.25c-0.12-0.13-0.24-0.26-0.37-0.38c-1.83-1.67-3.97-1.89-6.28-1.38
		c-0.81,0.18-1.61,0.39-2.42,0.58c0.02-0.19,0.08-0.29,0.16-0.31c1.46-0.34,2.9-0.8,4.37-0.98c1.95-0.24,3.61,0.49,4.74,2.14
		c0.32,0.47,0.69,0.68,1.21,0.76c0.66,0.1,1.31,0.23,1.96,0.35c-0.12-1.45-0.83-2.69-2.06-3.63c-1.7-1.29-3.65-1.88-5.77-1.88
		c-3.07-0.01-5.91,0.92-8.63,2.24c-1.24,0.6-2.43,1.33-3.72,2.04c0.3,0.41,0.43,0.76,0.69,0.9c0.21,0.11,0.56-0.05,0.94-0.1
		c-0.24,0.25-0.41,0.43-0.68,0.71c1.03,0.47,1.98,0.88,2.91,1.33c0.27,0.13,0.68,0.4,0.67,0.59c-0.03,0.39-0.19,0.87-0.48,1.11
		c-0.9,0.75-2.01,0.78-2.91,0.13c-0.77-0.56-1.58-0.61-2.47-0.7c-0.06,0.24-0.08,0.49-0.18,0.72c-0.41,1.02-0.01,1.73,0.79,2.36
		c1.26,0.99,2.49,2.02,3.79,3.08c0.43-0.64,0.78-1.15,1.12-1.67c0.06,0.03,0.13,0.07,0.19,0.1c-0.38,0.52-0.76,1.05-1.08,1.49
		c0.52,0.38,0.9,0.59,1.19,0.89c0.27,0.29,0.28,0.63-0.13,0.89c-0.66,0.42-1.3,0.85-1.85,1.22c0.11-0.17,0.29-0.46,0.47-0.74
		c-0.04-0.03-0.08-0.07-0.12-0.1c-0.97,1.17-1.94,2.33-2.9,3.5c-0.06-0.05-0.12-0.09-0.17-0.14c0.47-0.65,0.94-1.29,1.41-1.94
		c-0.02-0.02-0.05-0.03-0.07-0.05c-1.1,1.13-2.21,2.25-3.31,3.38c-0.04-0.04-0.08-0.08-0.12-0.12c1.2-1.38,2.4-2.76,3.59-4.14
		c-0.06-0.08-0.13-0.16-0.19-0.23c-0.26,0.17-0.58,0.29-0.78,0.51C100.67,206.6,99.7,207.73,98.72,208.84z M102.34,187.8
		c0.75,0.2,1.45,0.25,2,0.56c0.65,0.36,1.17,0.17,1.74-0.05c2.4-0.94,4.87-1.8,7.44-1.7c1.62,0.07,2.12-0.74,2.55-1.92
		c0.1-0.29,0.2-0.58,0.27-0.87c0.63-2.52,0.62-5.07,0.44-7.63c-0.09-1.27-0.29-2.52-0.44-3.79c-0.38,0.2-0.52,0.48-0.75,0.64
		c-0.52,0.39-1.08,1.02-1.61,1.01c-1.1-0.02-1.25,1.01-1.86,1.2c0.61,1.04,1.19,1.98,1.71,2.96c0.59,1.1,1.13,2.22,1.7,3.33
		c-1.91-3.19-3.47-5.37-4.24-5.66c-0.03,0.09-0.09,0.19-0.08,0.28c0.03,0.4,0.07,0.8,0.13,1.39c-0.16-0.54-0.26-0.89-0.4-1.37
		C107.48,179.68,104.91,183.73,102.34,187.8z M95.47,186.5c-0.53,1.36-1.04,2.68-1.57,4c-1.64,4.09-0.52,7.63,2.17,10.85
		c0.02,0.03,0.08,0.03,0.12,0.04c0.02-0.11,0.04-0.22,0.08-0.43c1.63,1.7,3.33,3.16,5.92,3.29c-1.6-1.01-3.24-1.78-4.12-3.44
		c0.54,0.3,1.03,0.64,1.49,1.04c1.32,1.14,2.88,1.8,4.5,2.37c0.62,0.22,1.17,0.14,1.56-0.56c-0.16-0.07-0.26-0.13-0.38-0.16
		c-2.41-0.62-4.12-2.25-5.7-4.03c-0.72-0.81-0.49-3.14,0.29-3.91c0.37-0.37,1.28-0.47,1.26-0.19c-0.02,0.4,0.22,0.29,0.38,0.39
		c0.28,0.17,0.54,0.36,0.81,0.54c0.33,0.22,0.64,0.51,1.01,0.66c0.83,0.33,1.91-0.07,2.17-0.76c-0.27-0.06-0.55-0.1-0.81-0.18
		c-1.2-0.35-2.37-0.69-3.03-1.95c-0.45-0.85-1.12-1.58-1.71-2.38c-0.27,0.23-0.41,0.35-0.56,0.48c-0.04-0.03-0.09-0.06-0.13-0.09
		c0.58-1.47,1.17-2.94,1.76-4.44C99.05,187.75,97.23,187.54,95.47,186.5z M100.21,191.11c0.06,0.06,0.12,0.11,0.18,0.17
		c1.26-0.72,2.51-1.43,3.91-2.23c-0.55-0.15-0.99-0.31-1.44-0.37c-0.36-0.05-0.91-0.11-1.07,0.08
		C101.19,189.49,100.72,190.32,100.21,191.11z M124.37,191.83c-0.16,0.3-0.08,0.59,0.05,0.66c0.13,0.07,0.42-0.05,0.56-0.37
		c0.17-0.2,0.34-0.44,0.51-0.73c0.24-0.42,0.39-0.8,0.49-1.12c0.19-0.34,0.19-0.64,0.08-0.7c-0.1-0.06-0.31,0.04-0.5,0.23
		c-0.11,0.08-0.24,0.2-0.38,0.35c-0.09,0.1-0.26,0.29-0.41,0.55C124.52,191.11,124.42,191.53,124.37,191.83z"/>
	<path class="st21" d="M124.14,206.39c0.13-0.07,0.31-0.16,0.55-0.25c0.3-0.11,1.13-0.41,2.16-0.2c0.37,0.08,0.89,0.18,1.33,0.62
		c0.31,0.31,0.42,0.64,0.46,0.74c0.3,0.87-0.04,1.34-0.97,1.27c-1.84-0.13-3.14-1.64-3.21-1.73
		C124.31,206.66,124.2,206.5,124.14,206.39z M125.21,206.74c1.04,0.94,2,1.31,2.87,1.11C128.13,206.58,126.53,206.4,125.21,206.74z"
		/>
	<path class="st21" d="M125.69,195.49c0.81-0.14,1.43,0.21,1.52,0.62c0.05,0.26-0.12,0.54-0.28,0.69c-0.37,0.33-0.92,0.19-1.18,0.13
		c-0.13-0.03-0.22-0.08-0.27-0.12c-0.04-0.03-0.16-0.11-0.24-0.27c-0.11-0.2-0.12-0.49,0.02-0.72
		C125.39,195.58,125.63,195.51,125.69,195.49z M126.85,196.49c0.02-0.02,0.09-0.08,0.1-0.18c0.02-0.16-0.1-0.27-0.11-0.28
		c-0.22-0.15-0.42-0.21-0.54-0.24c-0.17-0.04-0.43-0.09-0.66,0.05c-0.04,0.02-0.12,0.08-0.17,0.18c-0.09,0.17-0.03,0.34-0.02,0.38
		c0.05,0.04,0.47,0.41,0.99,0.29C126.63,196.66,126.76,196.57,126.85,196.49z"/>
	<path class="st21" d="M111.46,166.19c-0.01,0.79-0.03,1.58-0.04,2.37c-0.06,0-0.12,0-0.18,0c0-0.79,0.01-1.58,0.01-2.36
		C111.32,166.2,111.39,166.19,111.46,166.19z"/>
	<path class="st21" d="M89.92,171.06c1.35-1.07,2.92-1.85,4.29-2.16C92.99,169.52,91.43,170.3,89.92,171.06z"/>
	<path class="st21" d="M92.26,163.47c-1.53,0.31-3.05,0.63-4.65,0.96c0.81-0.23,1.55-0.49,2.3-0.65c0.76-0.17,1.54-0.26,2.31-0.38
		C92.24,163.42,92.25,163.45,92.26,163.47z"/>
	<path class="st21" d="M111.56,205.81c0.76-0.08,1.67-0.15,2.58-0.28c0.24-0.03,0.47-0.19,0.68-0.32c0.62-0.39,0.92-0.95,0.81-1.68
		c-0.12-0.76-0.7-1.1-1.37-1.26c-1.83-0.44-4.5,0.7-5.52,2.25c-0.57,0.87-1.22,1.67-1.91,2.61c0.96,0.02,1.29-0.89,1.99-1.11
		c0.13,1.3-1.15,2.36-2.31,1.86c-0.43-0.18-0.59,0.02-0.84,0.23c-2.02,1.72-3.81,2.63-5.96,2.88c0.32-0.15,0.64-0.3,0.95-0.46
		c3.16-1.56,5.54-3.88,7.4-6.91c1.43-2.34,2.31-4.72,2.34-7.43c0-0.4-0.06-0.81-0.07-1.22c0-0.11,0.09-0.31,0.13-0.31
		c0.13,0.01,0.34,0.05,0.38,0.14c0.13,0.33,0.25,0.67,0.28,1.02c0.18,1.72-0.1,3.39-0.63,5.03c-0.1,0.31-0.21,0.62-0.36,1.06
		c0.75-0.22,1.39-0.41,2.04-0.59c1.08-0.3,2.1-0.17,3.08,0.41c0.86,0.51,1.29,1.35,1.16,2.36c-0.12,0.99-0.81,1.93-1.76,2.04
		c-1.53,0.18-2.25,1.11-2.96,2.37c-0.72,1.3-1.11,2.58-0.88,4.21c-1.09-0.76-0.8-1.7-0.62-2.45c0.19-0.79,0.72-1.49,1.11-2.24
		c-0.12-0.1-0.27-0.24-0.4-0.36c0.39-0.33,0.9-0.58,1.05-0.96C112.05,206.49,111.66,206.03,111.56,205.81z"/>
	<path class="st21" d="M96.47,215.53c1.05,0.01,2.74-0.1,4.62-0.89c1.16-0.49,2.52-1.06,3.62-2.43c0.82-1.01,1.25-2.18,1.74-2.07
		c0.3,0.06,0.44,0.58,0.47,0.67c0.07,0.28,0.09,0.7-0.32,1.45c-0.2,0.36-0.63,1.05-1.74,1.92c-0.98,0.77-1.84,1.19-2.04,1.28
		c-1.19,0.56-3.48,1.64-5.42,0.7C96.97,215.96,96.66,215.71,96.47,215.53z"/>
	<path class="st21" d="M117.53,211.53c-0.33,0.13-0.97,0.34-1.77,0.26c-0.76-0.07-1.29-0.36-1.4-0.42c-0.26-0.14-0.44-0.29-0.8-0.58
		c-0.38-0.3-0.45-0.41-0.49-0.47c-0.25-0.42-0.21-0.98-0.07-1.03c0.13-0.04,0.23,0.39,0.75,0.75c0.3,0.21,0.59,0.29,0.84,0.36
		c0.42,0.12,0.75,0.12,1.1,0.13c0.7,0.02,1.21-0.09,1.35-0.12c0.4-0.09,0.65-0.14,0.94-0.3c0.6-0.33,0.76-0.78,0.9-0.72
		c0.16,0.07,0.12,0.79-0.23,1.33C118.3,211.26,117.77,211.46,117.53,211.53z"/>
	<path class="st21" d="M110.38,216.78c-0.9,2.09-2.7,3.11-4.74,3.62c-1.93,0.48-3.91,0.49-5.57-1.06
		C104.11,220.79,107.52,219.93,110.38,216.78z"/>
	<path class="st21" d="M118.25,215.41c-0.64,1.12-1.63,1.61-2.78,1.63c-1.19,0.02-1.95-0.72-2.43-1.88
		C114.72,216.83,116.45,216.81,118.25,215.41z"/>
	<path class="st21" d="M103.84,194.12c1.81-2.18,4.13-3.45,6.84-4.02c-1.18,0.6-2.39,1.14-3.53,1.81
		C106.01,192.58,104.94,193.37,103.84,194.12z"/>
	<path class="st21" d="M108.64,213.82c-0.17,2.21-1.85,4.21-3.75,4.48C106.62,217.2,107.97,215.79,108.64,213.82z"/>
	<path class="st21" d="M93.32,211.07c-1.93,0.14-3.72-2.17-2.55-4.09C90.51,209.03,91.24,210.47,93.32,211.07z"/>
	<path class="st21" d="M96.52,209.52c1.34-1.32,2.67-2.64,4.01-3.96c0.04,0.04,0.09,0.08,0.13,0.13c-1.31,1.35-2.62,2.69-3.93,4.04
		C96.65,209.66,96.58,209.59,96.52,209.52z"/>
	<path class="st21" d="M113.57,204.72c0.04-0.03,0.35-0.28,0.34-0.66c-0.01-0.3-0.2-0.49-0.32-0.61c-0.12-0.12-0.43-0.42-0.81-0.34
		c-0.15,0.03-0.3,0.15-0.45,0.4c-0.08,0.09-0.15,0.18-0.23,0.27c0.01-0.07,0.09-0.8,0.59-1.03c0.65-0.3,1.52,0.45,1.69,1.12
		C114.51,204.34,114.34,204.66,113.57,204.72z"/>
	<path class="st21" d="M96.86,219.08c-0.77,0.16-2.08-0.56-2.56-1.32C94.95,218.09,96,218.63,96.86,219.08z"/>
	<path class="st21" d="M117.5,190c-1.37-0.27-2.7-0.53-4-0.78C114.91,188.9,116.23,189.24,117.5,190z"/>
	<path class="st21" d="M111.25,203.57c-0.05,0.05-0.25,0.28-0.21,0.57c0.04,0.27,0.26,0.43,0.44,0.55c0.24,0.17,0.49,0.22,0.63,0.24
		c-0.04,0.03-0.51,0.34-0.99,0.14c-0.47-0.19-0.78-0.79-0.57-1.23c0.16-0.35,0.57-0.44,0.64-0.45
		C111.21,203.44,111.23,203.51,111.25,203.57z"/>
	<path class="st21" d="M114.94,208.94c0.96-0.01,1.93-0.01,2.89-0.02C116.88,209.39,115.9,209.31,114.94,208.94z"/>
	<path class="st21" d="M114.93,215.03c-1.03,0.06-1.36-0.16-1.67-1.09C113.84,214.32,114.35,214.66,114.93,215.03z"/>
	<path class="st2" d="M127.43,200c0.04-0.03,0.16-0.12,0.2-0.25c0.06-0.21-0.14-0.33-0.15-0.34c-0.36-0.16-0.7-0.21-0.91-0.22
		c-0.29-0.02-0.75-0.05-1.16,0.17c-0.07,0.04-0.22,0.12-0.33,0.26c-0.18,0.23-0.11,0.44-0.09,0.49c0.08,0.05,0.76,0.45,1.68,0.22
		C127.01,200.25,127.27,200.1,127.43,200z"/>
</g>
<path id="XMLID_769_" class="st22" d="M21.67,44.89l-0.63-0.63l-1.39,1.39l-4.11-4.11l1.39-1.39l-0.63-0.63l-1.39,1.39l-4.54,4.54
	c-0.22,0.22-0.34,0.51-0.34,0.81c0,0.07,0.01,0.13,0.02,0.2l-2.49,2.49c-0.63,0.63-0.97,1.46-0.97,2.35s0.35,1.72,0.97,2.35
	c0.63,0.63,1.46,0.97,2.35,0.97c0.89,0,1.72-0.35,2.35-0.97l2.49-2.49c0.06,0.01,0.13,0.02,0.2,0.02c0.31,0,0.6-0.12,0.81-0.34
	l4.31-4.31L21.67,44.89z M11.6,53c-0.46,0.46-1.06,0.71-1.71,0.71c-0.65,0-1.25-0.25-1.71-0.71c-0.46-0.46-0.71-1.06-0.71-1.71
	s0.25-1.25,0.71-1.71l2.35-2.35l3.42,3.42L11.6,53z M15.1,50.19c-0.1,0.1-0.26,0.1-0.36,0l-3.76-3.76c-0.1-0.1-0.1-0.26,0-0.36
	l3.9-3.9l4.11,4.11L15.1,50.19z"/>
<path id="XMLID_780_" class="st22" d="M18.84,42.34l0.33,1.27L20.7,44l0.22-0.87l-1.02-0.26l-0.33-1.27l-1.27-0.33l-0.26-1.01
	l-0.87,0.22l0.39,1.53L18.84,42.34z"/>
<path id="XMLID_782_" class="st22" d="M14.53,46.66l-1.24,0.61l0.4,0.81l2.58-1.27l-0.74-0.54l1.14-0.58l-0.41-0.8l-2.45,1.25
	L14.53,46.66z"/>
<path id="XMLID_783_" class="st22" d="M10.07,49.42l0.63-0.63l1.68,1.68l-0.63,0.63L10.07,49.42z"/>
<path id="XMLID_784_" class="st22" d="M8.88,50.62l0.63-0.63l1.68,1.68l-0.63,0.63L8.88,50.62z"/>
<path id="XMLID_5_" class="st22" d="M157.67,207.25l0.63,0.63l1.39-1.39l4.11,4.11l-1.39,1.39l0.63,0.63l1.39-1.39l4.54-4.54
	c0.22-0.22,0.34-0.51,0.34-0.81c0-0.07-0.01-0.13-0.02-0.2l2.49-2.49c0.63-0.63,0.97-1.46,0.97-2.35s-0.35-1.72-0.97-2.35
	c-0.63-0.63-1.46-0.97-2.35-0.97c-0.89,0-1.72,0.35-2.35,0.97l-2.49,2.49c-0.06-0.01-0.13-0.02-0.2-0.02c-0.31,0-0.6,0.12-0.81,0.34
	l-4.31,4.31L157.67,207.25z M167.74,199.14c0.46-0.46,1.06-0.71,1.71-0.71c0.65,0,1.25,0.25,1.71,0.71
	c0.46,0.46,0.71,1.07,0.71,1.71s-0.25,1.25-0.71,1.71l-2.35,2.35l-3.42-3.42L167.74,199.14z M164.24,201.96c0.1-0.1,0.26-0.1,0.36,0
	l3.76,3.76c0.1,0.1,0.1,0.26,0,0.36l-3.9,3.9l-4.11-4.11L164.24,201.96z"/>
<path id="XMLID_4_" class="st22" d="M160.5,209.81l-0.33-1.27l-1.53-0.39l-0.22,0.87l1.02,0.26l0.33,1.27l1.27,0.33l0.26,1.01
	l0.87-0.22l-0.39-1.53L160.5,209.81z"/>
<path id="XMLID_3_" class="st22" d="M164.81,205.49l1.24-0.61l-0.4-0.81l-2.58,1.27l0.74,0.54l-1.14,0.58l0.41,0.8l2.45-1.25
	L164.81,205.49z"/>
<path id="XMLID_2_" class="st22" d="M169.27,202.72l-0.63,0.63l-1.68-1.68l0.63-0.63L169.27,202.72z"/>
<path id="XMLID_1_" class="st22" d="M170.46,201.53l-0.63,0.63l-1.68-1.68l0.63-0.63L170.46,201.53z"/>
<g>
	<path class="st23" d="M51.56,135.01l-1.63,0.49l-0.18,6.56l-1.17,0.35l0.18-6.56l-1.63,0.49l0.04-1.47l4.43-1.33L51.56,135.01z"/>
	<path class="st23" d="M53.11,134.94c0.59-0.18,1.03-0.08,1.32,0.3c0.29,0.37,0.43,0.96,0.4,1.75l-0.1,3.61l-0.44,0.13l-0.27-0.62
		l-0.03,0.01c-0.16,0.31-0.35,0.57-0.57,0.76c-0.22,0.2-0.46,0.33-0.72,0.41c-0.24,0.07-0.45,0.09-0.65,0.05
		c-0.19-0.04-0.36-0.13-0.51-0.27c-0.14-0.14-0.25-0.32-0.33-0.54c-0.07-0.22-0.11-0.49-0.1-0.8c0.02-0.62,0.17-1.15,0.45-1.6
		c0.28-0.44,0.7-0.74,1.25-0.91c0.15-0.05,0.31-0.08,0.49-0.11c0.17-0.02,0.32-0.03,0.44-0.03l0-0.15c0.01-0.32-0.04-0.56-0.14-0.72
		c-0.1-0.16-0.27-0.2-0.51-0.13c-0.15,0.05-0.28,0.14-0.4,0.28c-0.11,0.14-0.19,0.3-0.23,0.49l-1.12,0.34
		c0.05-0.26,0.13-0.51,0.23-0.75c0.1-0.24,0.23-0.47,0.37-0.67c0.15-0.2,0.32-0.37,0.51-0.52
		C52.66,135.11,52.88,135.01,53.11,134.94z M52.85,140.03c0.25-0.08,0.46-0.25,0.61-0.51s0.24-0.56,0.24-0.87l0.01-0.45
		c-0.28-0.03-0.55-0.01-0.82,0.07c-0.44,0.13-0.67,0.5-0.69,1.09c-0.01,0.25,0.05,0.44,0.16,0.57
		C52.49,140.06,52.65,140.09,52.85,140.03z"/>
	<path class="st23" d="M57.75,133.54c0.11-0.03,0.22-0.05,0.32-0.06c0.1-0.01,0.19,0,0.27,0.01l-0.04,1.53
		c-0.08-0.02-0.19-0.03-0.32-0.03c-0.13,0-0.25,0.01-0.36,0.05c-0.21,0.06-0.38,0.22-0.5,0.47c-0.12,0.25-0.19,0.58-0.2,0.99
		l-0.1,3.44l-1.1,0.33l0.17-6.09l0.44-0.13l0.34,0.77l0.03-0.01c0.12-0.32,0.27-0.6,0.46-0.83
		C57.33,133.76,57.53,133.61,57.75,133.54z"/>
	<path class="st23" d="M62.31,132.26l-0.15,5.42c-0.03,0.95-0.21,1.72-0.55,2.31c-0.34,0.59-0.82,0.98-1.43,1.16
		c-0.2,0.06-0.4,0.08-0.59,0.05c-0.19-0.03-0.36-0.1-0.5-0.21c-0.15-0.11-0.27-0.26-0.37-0.45c-0.1-0.19-0.16-0.42-0.19-0.69
		l1.12-0.33c0.03,0.18,0.1,0.31,0.21,0.39c0.11,0.08,0.25,0.09,0.42,0.04c0.49-0.15,0.75-0.67,0.77-1.57l0.01-0.39L61.03,138
		c-0.13,0.21-0.27,0.38-0.44,0.52c-0.16,0.14-0.35,0.24-0.55,0.3c-0.26,0.08-0.48,0.07-0.68-0.02c-0.2-0.09-0.36-0.25-0.49-0.48
		c-0.13-0.23-0.22-0.51-0.28-0.86c-0.06-0.34-0.08-0.73-0.07-1.16c0.01-0.43,0.06-0.84,0.14-1.23c0.08-0.39,0.2-0.74,0.34-1.05
		c0.15-0.31,0.32-0.57,0.54-0.79c0.21-0.22,0.45-0.36,0.72-0.44c0.27-0.08,0.51-0.07,0.71,0.03c0.2,0.1,0.37,0.27,0.51,0.51
		l0.03-0.01l0.36-0.93L62.31,132.26z M60.34,137.38c0.24-0.07,0.44-0.27,0.58-0.59c0.14-0.32,0.22-0.75,0.24-1.27
		c0.01-0.53-0.04-0.91-0.17-1.15c-0.13-0.24-0.31-0.32-0.56-0.25c-0.25,0.08-0.45,0.27-0.58,0.59c-0.14,0.32-0.21,0.74-0.23,1.27
		c-0.01,0.53,0.04,0.91,0.16,1.16C59.9,137.37,60.09,137.45,60.34,137.38z"/>
	<path class="st23" d="M66.77,134.11c0,0.05,0,0.1-0.01,0.15s-0.01,0.11-0.01,0.16l-2.65,0.79c0.02,0.47,0.1,0.79,0.24,0.96
		c0.13,0.17,0.31,0.22,0.52,0.16c0.19-0.06,0.34-0.17,0.47-0.35c0.13-0.18,0.22-0.39,0.27-0.62l1.07-0.32
		c-0.13,0.67-0.35,1.24-0.66,1.7c-0.32,0.46-0.71,0.77-1.19,0.91c-0.31,0.09-0.58,0.09-0.82,0c-0.23-0.09-0.43-0.25-0.58-0.48
		c-0.15-0.23-0.27-0.53-0.34-0.89c-0.07-0.36-0.1-0.76-0.09-1.21c0.01-0.44,0.07-0.87,0.16-1.28c0.09-0.41,0.23-0.78,0.4-1.11
		c0.17-0.33,0.38-0.61,0.62-0.84c0.25-0.23,0.52-0.4,0.83-0.49c0.3-0.09,0.57-0.09,0.8,0c0.23,0.09,0.42,0.26,0.57,0.49
		c0.15,0.23,0.26,0.53,0.33,0.89c0.07,0.36,0.09,0.76,0.06,1.2L66.77,134.11z M64.98,132.67c-0.21,0.06-0.38,0.21-0.53,0.43
		c-0.15,0.23-0.25,0.57-0.31,1.02l1.58-0.47c-0.01-0.39-0.08-0.67-0.21-0.83C65.38,132.66,65.2,132.61,64.98,132.67z"/>
	<path class="st23" d="M68.85,131.7l-0.07,2.39c-0.01,0.42,0.01,0.69,0.07,0.81c0.06,0.12,0.14,0.16,0.27,0.13
		c0.1-0.03,0.2-0.07,0.33-0.12c0.12-0.05,0.22-0.09,0.29-0.12l-0.04,1.28c-0.05,0.02-0.12,0.05-0.19,0.08
		c-0.07,0.03-0.15,0.06-0.22,0.08c-0.08,0.03-0.15,0.05-0.23,0.08c-0.08,0.03-0.15,0.05-0.21,0.07c-0.4,0.12-0.7,0.04-0.9-0.24
		c-0.2-0.28-0.29-0.77-0.27-1.46l0.07-2.65l-0.54,0.16l0.04-1.38l0.54-0.16l0.06-1.98l1.09-0.33l-0.06,1.98l0.99-0.3l-0.04,1.38
		L68.85,131.7z"/>
	<path class="st23" d="M74.06,131.93c0,0.05,0,0.1-0.01,0.15c0,0.05-0.01,0.11-0.01,0.16l-2.65,0.79c0.02,0.47,0.1,0.79,0.24,0.96
		c0.13,0.17,0.31,0.22,0.52,0.16c0.19-0.06,0.34-0.17,0.47-0.35c0.13-0.18,0.22-0.39,0.27-0.62l1.07-0.32
		c-0.13,0.67-0.35,1.24-0.66,1.7c-0.32,0.46-0.71,0.77-1.19,0.91c-0.31,0.09-0.58,0.09-0.81,0c-0.23-0.09-0.43-0.25-0.58-0.48
		c-0.16-0.23-0.27-0.53-0.34-0.88c-0.07-0.36-0.1-0.76-0.09-1.21c0.01-0.44,0.07-0.87,0.16-1.28c0.09-0.41,0.23-0.78,0.4-1.11
		c0.17-0.33,0.38-0.61,0.62-0.84c0.25-0.23,0.52-0.4,0.83-0.49c0.3-0.09,0.57-0.09,0.8,0c0.23,0.09,0.42,0.26,0.57,0.49
		c0.15,0.23,0.26,0.53,0.33,0.89c0.07,0.36,0.09,0.76,0.06,1.2L74.06,131.93z M72.27,130.49c-0.2,0.06-0.38,0.21-0.53,0.43
		c-0.15,0.23-0.25,0.57-0.31,1.02l1.58-0.47c-0.01-0.39-0.08-0.67-0.21-0.83C72.66,130.47,72.49,130.42,72.27,130.49z"/>
	<path class="st23" d="M74.7,131.58c0.01-0.44,0.06-0.87,0.13-1.27c0.08-0.4,0.19-0.77,0.33-1.09c0.14-0.32,0.31-0.59,0.51-0.81
		s0.43-0.36,0.68-0.44c0.22-0.07,0.41-0.07,0.58,0c0.17,0.06,0.31,0.18,0.44,0.35l0.03-0.01l0.08-2.97l1.09-0.33l-0.24,8.5
		l-0.44,0.13l-0.34-0.78l-0.03,0.01c-0.15,0.35-0.33,0.64-0.54,0.87c-0.21,0.23-0.46,0.39-0.74,0.48c-0.27,0.08-0.5,0.07-0.7-0.02
		c-0.2-0.09-0.36-0.26-0.49-0.51c-0.13-0.24-0.22-0.54-0.29-0.9C74.71,132.43,74.68,132.03,74.7,131.58z M75.79,131.25
		c-0.02,0.57,0.04,0.99,0.16,1.25c0.12,0.26,0.31,0.35,0.56,0.28c0.24-0.07,0.44-0.28,0.58-0.62c0.14-0.34,0.22-0.8,0.24-1.37
		s-0.04-0.99-0.16-1.25c-0.13-0.26-0.31-0.35-0.55-0.28c-0.25,0.08-0.45,0.28-0.59,0.62C75.89,130.22,75.81,130.67,75.79,131.25z"/>
	<path class="st23" d="M83.44,125.84c0.28-0.08,0.52-0.07,0.72,0.04c0.2,0.11,0.37,0.29,0.49,0.54c0.12,0.25,0.21,0.56,0.27,0.91
		c0.05,0.36,0.07,0.74,0.06,1.16c-0.01,0.4-0.05,0.8-0.12,1.19c-0.07,0.39-0.17,0.76-0.31,1.09c-0.13,0.33-0.3,0.62-0.51,0.85
		c-0.2,0.24-0.44,0.39-0.72,0.48c-0.2,0.06-0.39,0.06-0.56,0.01c-0.17-0.05-0.33-0.17-0.46-0.35l-0.03,0.01l-0.08,2.77l-1.09,0.33
		l0.23-8.32l0.44-0.13l0.34,0.79l0.03-0.01c0.16-0.38,0.35-0.69,0.57-0.91C82.95,126.07,83.18,125.92,83.44,125.84z M83.07,130.81
		c0.16-0.05,0.29-0.14,0.39-0.28c0.1-0.14,0.18-0.3,0.25-0.48c0.06-0.18,0.11-0.38,0.13-0.6c0.03-0.22,0.04-0.43,0.05-0.64
		c0.01-0.21,0-0.41-0.01-0.62c-0.02-0.2-0.05-0.38-0.1-0.53c-0.05-0.15-0.13-0.26-0.22-0.34c-0.1-0.08-0.22-0.09-0.38-0.05
		c-0.15,0.05-0.28,0.14-0.38,0.27c-0.1,0.14-0.18,0.3-0.24,0.48c-0.06,0.19-0.11,0.39-0.14,0.61c-0.03,0.22-0.05,0.43-0.05,0.63
		c-0.01,0.2,0,0.4,0.02,0.61c0.02,0.2,0.05,0.38,0.11,0.53s0.13,0.27,0.22,0.34C82.79,130.84,82.92,130.86,83.07,130.81z"/>
	<path class="st23" d="M87.04,122.47l-0.24,8.48l-1.09,0.33l0.24-8.48L87.04,122.47z"/>
	<path class="st23" d="M89.7,123.96c0.59-0.18,1.03-0.08,1.32,0.3c0.29,0.37,0.43,0.96,0.4,1.75l-0.1,3.61l-0.44,0.13l-0.27-0.62
		l-0.03,0.01c-0.16,0.31-0.35,0.57-0.57,0.76c-0.22,0.2-0.46,0.33-0.72,0.41c-0.24,0.07-0.45,0.09-0.65,0.05
		c-0.19-0.04-0.36-0.13-0.51-0.27c-0.14-0.14-0.25-0.32-0.33-0.54c-0.07-0.22-0.11-0.49-0.1-0.8c0.02-0.62,0.17-1.15,0.45-1.6
		c0.28-0.44,0.7-0.74,1.25-0.91c0.15-0.05,0.32-0.08,0.49-0.11c0.17-0.02,0.32-0.03,0.44-0.03l0-0.15c0.01-0.32-0.04-0.56-0.14-0.72
		c-0.1-0.16-0.27-0.2-0.51-0.13c-0.15,0.05-0.28,0.14-0.4,0.28c-0.11,0.14-0.19,0.3-0.23,0.49l-1.12,0.34
		c0.05-0.26,0.13-0.51,0.23-0.75c0.1-0.24,0.23-0.46,0.37-0.67c0.15-0.2,0.32-0.37,0.51-0.52C89.26,124.14,89.47,124.03,89.7,123.96
		z M89.45,129.06c0.25-0.08,0.46-0.25,0.61-0.51c0.15-0.27,0.23-0.56,0.24-0.87l0.01-0.45c-0.28-0.03-0.55-0.01-0.82,0.07
		c-0.44,0.13-0.67,0.5-0.69,1.09c-0.01,0.25,0.05,0.44,0.16,0.57C89.08,129.09,89.24,129.12,89.45,129.06z"/>
	<path class="st23" d="M95.81,122.25c-0.1,0.66-0.23,1.36-0.39,2.08c-0.15,0.73-0.32,1.44-0.49,2.13c-0.18,0.69-0.36,1.35-0.54,1.96
		c-0.18,0.61-0.36,1.14-0.53,1.58c-0.16,0.44-0.35,0.76-0.54,0.98c-0.2,0.22-0.44,0.37-0.72,0.45c-0.07,0.02-0.13,0.03-0.2,0.04
		c-0.07,0.01-0.12,0.01-0.16,0.02l0.04-1.28c0.04,0,0.09,0,0.15-0.01c0.06-0.01,0.11-0.02,0.16-0.04c0.13-0.04,0.25-0.17,0.37-0.4
		c0.12-0.23,0.26-0.6,0.42-1.12c-0.16-0.35-0.32-0.74-0.47-1.16c-0.15-0.41-0.29-0.85-0.41-1.29c-0.12-0.45-0.23-0.91-0.33-1.38
		c-0.1-0.47-0.17-0.94-0.22-1.41l1.11-0.33c0.07,0.48,0.15,1.01,0.25,1.58c0.1,0.57,0.22,1.13,0.36,1.66
		c0.02,0.06,0.03,0.12,0.05,0.19c0.02,0.06,0.03,0.12,0.05,0.2c0.02,0.08,0.04,0.16,0.06,0.23l0.03-0.01
		c0.03-0.1,0.05-0.19,0.07-0.29c0.02-0.09,0.04-0.17,0.05-0.24c0.02-0.08,0.04-0.16,0.05-0.22c0.14-0.63,0.26-1.25,0.37-1.83
		c0.1-0.59,0.2-1.18,0.3-1.77L95.81,122.25z"/>
	<path class="st23" d="M99.83,124.2c0,0.05,0,0.1-0.01,0.15s-0.01,0.11-0.01,0.16l-2.65,0.79c0.02,0.47,0.1,0.79,0.24,0.96
		c0.13,0.17,0.31,0.22,0.52,0.16c0.19-0.06,0.34-0.17,0.47-0.35c0.13-0.18,0.22-0.39,0.27-0.62l1.07-0.32
		c-0.13,0.67-0.35,1.24-0.66,1.7c-0.32,0.46-0.71,0.77-1.19,0.91c-0.31,0.09-0.58,0.09-0.81,0c-0.23-0.09-0.43-0.25-0.58-0.48
		c-0.16-0.23-0.27-0.53-0.34-0.88c-0.07-0.36-0.1-0.76-0.09-1.21c0.01-0.44,0.07-0.87,0.16-1.28c0.09-0.41,0.23-0.78,0.4-1.11
		c0.17-0.33,0.38-0.61,0.62-0.84s0.52-0.4,0.83-0.49c0.3-0.09,0.57-0.09,0.8,0c0.23,0.09,0.42,0.26,0.57,0.49
		c0.15,0.23,0.26,0.53,0.33,0.89c0.07,0.36,0.09,0.76,0.06,1.2L99.83,124.2z M98.04,122.76c-0.2,0.06-0.38,0.21-0.53,0.43
		c-0.15,0.23-0.25,0.57-0.31,1.02l1.58-0.47c-0.01-0.39-0.08-0.67-0.21-0.83C98.43,122.75,98.26,122.7,98.04,122.76z"/>
	<path class="st23" d="M102.58,120.1c0.11-0.03,0.21-0.05,0.32-0.06c0.1-0.01,0.19,0,0.27,0.01l-0.04,1.53
		c-0.08-0.02-0.19-0.03-0.32-0.03c-0.13,0-0.25,0.01-0.36,0.05c-0.21,0.06-0.38,0.22-0.5,0.47c-0.12,0.25-0.19,0.58-0.2,0.99
		l-0.1,3.44l-1.1,0.33l0.17-6.09l0.44-0.13l0.34,0.77l0.03-0.01c0.12-0.32,0.28-0.6,0.46-0.83
		C102.16,120.31,102.36,120.17,102.58,120.1z"/>
	<path class="st23" d="M109.08,122.33c-0.13,0.67-0.35,1.24-0.66,1.7c-0.32,0.46-0.71,0.77-1.19,0.91c-0.31,0.09-0.58,0.09-0.81,0
		s-0.43-0.25-0.58-0.48c-0.15-0.23-0.26-0.53-0.34-0.88c-0.07-0.36-0.1-0.76-0.09-1.21c0.01-0.44,0.07-0.87,0.16-1.28
		c0.09-0.41,0.22-0.78,0.39-1.11c0.17-0.33,0.37-0.61,0.62-0.84c0.24-0.23,0.52-0.4,0.83-0.49c0.48-0.14,0.86-0.07,1.16,0.22
		s0.49,0.75,0.58,1.4l-1.11,0.33c-0.05-0.28-0.14-0.46-0.25-0.53c-0.11-0.07-0.25-0.08-0.41-0.04c-0.27,0.08-0.48,0.3-0.62,0.65
		c-0.14,0.35-0.22,0.8-0.24,1.36c-0.02,0.55,0.04,0.96,0.17,1.23c0.13,0.27,0.33,0.36,0.6,0.28c0.19-0.06,0.34-0.16,0.45-0.32
		c0.12-0.16,0.2-0.35,0.24-0.57L109.08,122.33z"/>
	<path class="st23" d="M111.79,117.34c0.59-0.18,1.03-0.08,1.32,0.3c0.29,0.37,0.43,0.96,0.4,1.75l-0.1,3.61l-0.44,0.13l-0.27-0.62
		l-0.03,0.01c-0.16,0.31-0.35,0.57-0.57,0.76c-0.22,0.2-0.46,0.33-0.72,0.41c-0.24,0.07-0.45,0.09-0.65,0.05
		c-0.19-0.04-0.36-0.13-0.51-0.27c-0.14-0.14-0.25-0.32-0.33-0.54c-0.07-0.22-0.11-0.49-0.1-0.8c0.02-0.62,0.17-1.15,0.45-1.6
		c0.28-0.44,0.7-0.74,1.25-0.91c0.15-0.05,0.32-0.08,0.49-0.11c0.17-0.02,0.32-0.03,0.44-0.03l0-0.15c0.01-0.32-0.04-0.56-0.14-0.72
		c-0.1-0.16-0.27-0.2-0.51-0.13c-0.15,0.05-0.28,0.14-0.4,0.28c-0.11,0.14-0.19,0.3-0.23,0.49l-1.12,0.34
		c0.05-0.26,0.13-0.51,0.23-0.75c0.1-0.24,0.23-0.46,0.37-0.67c0.15-0.2,0.32-0.37,0.51-0.52
		C111.34,117.52,111.55,117.41,111.79,117.34z M111.53,122.44c0.25-0.08,0.46-0.25,0.61-0.51c0.15-0.27,0.23-0.56,0.24-0.87
		l0.01-0.45c-0.28-0.03-0.55-0.01-0.82,0.07c-0.44,0.13-0.67,0.5-0.69,1.09c-0.01,0.25,0.05,0.44,0.16,0.57
		C111.17,122.46,111.32,122.5,111.53,122.44z"/>
	<path class="st23" d="M116.71,115.86c0.25-0.07,0.46-0.07,0.64,0.01c0.18,0.08,0.33,0.22,0.45,0.42c0.12,0.2,0.2,0.45,0.26,0.75
		s0.07,0.63,0.06,1l-0.1,3.54l-1.09,0.33l0.09-3.36c0.01-0.45-0.02-0.78-0.11-1c-0.09-0.22-0.27-0.3-0.54-0.21
		c-0.08,0.02-0.16,0.07-0.25,0.15c-0.09,0.08-0.17,0.17-0.25,0.29c-0.08,0.11-0.14,0.24-0.2,0.39c-0.05,0.15-0.08,0.31-0.09,0.49
		l-0.1,3.69l-1.1,0.33l0.17-6.09l0.44-0.13l0.34,0.78l0.03-0.01c0.17-0.32,0.36-0.61,0.6-0.86
		C116.2,116.11,116.44,115.94,116.71,115.86z"/>
	<path class="st23" d="M121.32,114.48c0.25-0.07,0.46-0.07,0.64,0.01c0.18,0.08,0.33,0.22,0.45,0.42c0.12,0.2,0.2,0.45,0.26,0.75
		c0.05,0.3,0.07,0.63,0.06,1l-0.1,3.54l-1.09,0.33l0.09-3.36c0.01-0.45-0.02-0.78-0.11-1c-0.09-0.22-0.27-0.3-0.54-0.21
		c-0.08,0.02-0.16,0.07-0.25,0.15s-0.17,0.17-0.25,0.29c-0.08,0.11-0.14,0.24-0.2,0.39c-0.05,0.15-0.08,0.31-0.09,0.49l-0.1,3.69
		l-1.1,0.33l0.17-6.09l0.44-0.13l0.34,0.78l0.03-0.01c0.17-0.32,0.36-0.61,0.6-0.86C120.81,114.73,121.06,114.56,121.32,114.48z"/>
	<path class="st23" d="M125.43,113.25c0.31-0.09,0.58-0.1,0.82-0.01c0.23,0.09,0.43,0.25,0.58,0.48c0.15,0.24,0.26,0.53,0.34,0.89
		c0.07,0.36,0.1,0.76,0.09,1.2c-0.01,0.45-0.07,0.88-0.16,1.29c-0.09,0.4-0.22,0.77-0.39,1.1c-0.17,0.33-0.37,0.61-0.62,0.84
		c-0.24,0.23-0.52,0.39-0.83,0.48c-0.31,0.09-0.58,0.1-0.81,0.01c-0.23-0.08-0.43-0.25-0.58-0.48c-0.15-0.23-0.26-0.53-0.34-0.88
		c-0.07-0.36-0.1-0.76-0.09-1.21c0.01-0.44,0.07-0.87,0.16-1.28c0.09-0.41,0.22-0.78,0.39-1.11c0.17-0.33,0.37-0.61,0.62-0.84
		C124.84,113.5,125.12,113.34,125.43,113.25z M125.29,118.15c0.27-0.08,0.47-0.29,0.62-0.63c0.15-0.34,0.23-0.8,0.24-1.37
		c0.02-0.57-0.04-0.99-0.17-1.25c-0.13-0.26-0.33-0.35-0.6-0.27c-0.26,0.08-0.46,0.29-0.61,0.63c-0.15,0.34-0.23,0.8-0.25,1.38
		c-0.02,0.57,0.04,0.99,0.18,1.25C124.84,118.14,125.03,118.23,125.29,118.15z"/>
	<path class="st23" d="M129.31,113.57l-0.07,2.39c-0.01,0.42,0.01,0.69,0.07,0.81c0.06,0.12,0.14,0.16,0.27,0.13
		c0.1-0.03,0.2-0.07,0.33-0.12c0.12-0.05,0.22-0.09,0.29-0.12l-0.04,1.28c-0.05,0.02-0.12,0.05-0.19,0.08
		c-0.07,0.03-0.15,0.06-0.22,0.08c-0.08,0.03-0.15,0.05-0.23,0.08c-0.08,0.03-0.15,0.05-0.21,0.07c-0.4,0.12-0.7,0.04-0.9-0.24
		c-0.2-0.28-0.29-0.77-0.27-1.46l0.07-2.65l-0.54,0.16l0.04-1.38l0.54-0.16l0.06-1.98l1.09-0.33l-0.06,1.98l0.99-0.3l-0.04,1.38
		L129.31,113.57z"/>
	<path class="st23" d="M54.53,148.2c0.59-0.18,1.03-0.08,1.32,0.3c0.29,0.37,0.43,0.96,0.4,1.75l-0.1,3.61l-0.44,0.13l-0.27-0.62
		l-0.03,0.01c-0.16,0.31-0.35,0.57-0.57,0.76c-0.22,0.2-0.46,0.33-0.72,0.41c-0.24,0.07-0.45,0.09-0.65,0.05
		c-0.19-0.04-0.36-0.13-0.51-0.27c-0.14-0.14-0.25-0.32-0.33-0.54c-0.07-0.22-0.11-0.49-0.1-0.8c0.02-0.62,0.17-1.15,0.45-1.6
		c0.28-0.44,0.7-0.74,1.25-0.91c0.15-0.05,0.31-0.08,0.49-0.11c0.17-0.02,0.32-0.03,0.44-0.03l0-0.15c0.01-0.32-0.04-0.56-0.14-0.72
		c-0.1-0.16-0.27-0.2-0.51-0.13c-0.15,0.05-0.28,0.14-0.4,0.28c-0.11,0.14-0.19,0.3-0.23,0.49l-1.12,0.34
		c0.05-0.26,0.13-0.51,0.23-0.75c0.1-0.24,0.23-0.47,0.37-0.67c0.15-0.2,0.32-0.37,0.51-0.52C54.08,148.38,54.3,148.27,54.53,148.2z
		 M54.27,153.3c0.25-0.08,0.46-0.25,0.61-0.51c0.15-0.27,0.24-0.56,0.24-0.87l0.01-0.45c-0.28-0.03-0.55-0.01-0.82,0.07
		c-0.44,0.13-0.67,0.5-0.69,1.09c-0.01,0.25,0.05,0.44,0.16,0.57C53.91,153.32,54.07,153.36,54.27,153.3z"/>
	<path class="st23" d="M61.34,146.16c0.43-0.13,0.75-0.02,0.95,0.32c0.2,0.35,0.29,0.88,0.27,1.6l-0.11,3.85l-1.09,0.33l0.11-3.95
		c0.01-0.29-0.03-0.49-0.1-0.6c-0.08-0.11-0.18-0.15-0.32-0.11c-0.15,0.05-0.29,0.17-0.41,0.37c-0.12,0.2-0.18,0.44-0.2,0.71l0,0.02
		l-0.11,3.85l-1.09,0.33l0.11-3.95c0.01-0.29-0.03-0.49-0.1-0.6c-0.08-0.11-0.19-0.15-0.32-0.1c-0.15,0.05-0.29,0.17-0.41,0.37
		c-0.12,0.2-0.18,0.43-0.19,0.7l-0.11,3.89l-1.1,0.33l0.17-6.09l0.44-0.13l0.3,0.7l0.03-0.01c0.15-0.31,0.32-0.57,0.51-0.79
		c0.2-0.22,0.41-0.36,0.64-0.43c0.47-0.14,0.8,0.01,1.01,0.44l0.03-0.01c0.14-0.27,0.3-0.5,0.49-0.69
		C60.94,146.35,61.13,146.22,61.34,146.16z"/>
	<path class="st23" d="M65.8,144.82c0.25-0.08,0.47-0.06,0.67,0.03c0.19,0.1,0.35,0.27,0.47,0.51c0.12,0.25,0.21,0.55,0.27,0.91
		c0.06,0.36,0.08,0.77,0.07,1.21c-0.01,0.45-0.06,0.88-0.14,1.28c-0.08,0.4-0.2,0.76-0.34,1.09c-0.15,0.33-0.32,0.6-0.53,0.81
		c-0.21,0.22-0.44,0.37-0.71,0.45c-0.28,0.08-0.52,0.07-0.73-0.04c-0.2-0.11-0.37-0.3-0.5-0.56l-0.03,0.01l-0.39,1l-0.44,0.13
		l0.24-8.5l1.09-0.33l-0.08,2.97l0.03-0.01c0.13-0.25,0.29-0.45,0.47-0.62S65.58,144.89,65.8,144.82z M65.36,149.81
		c0.25-0.08,0.45-0.28,0.59-0.62c0.14-0.34,0.22-0.8,0.23-1.37s-0.04-0.99-0.16-1.25c-0.12-0.26-0.31-0.35-0.56-0.28
		c-0.24,0.07-0.44,0.28-0.58,0.62c-0.14,0.34-0.22,0.8-0.24,1.37c-0.02,0.57,0.04,0.99,0.16,1.25
		C64.93,149.79,65.12,149.89,65.36,149.81z"/>
	<path class="st23" d="M71.71,143.16l-0.17,6.08l-0.44,0.13l-0.33-0.77l-0.03,0.01c-0.17,0.32-0.36,0.61-0.6,0.86
		s-0.48,0.42-0.75,0.5c-0.25,0.07-0.46,0.07-0.64-0.01c-0.18-0.08-0.33-0.22-0.45-0.42c-0.12-0.2-0.21-0.44-0.26-0.74
		c-0.05-0.3-0.07-0.63-0.06-1l0.1-3.54l1.1-0.33l-0.09,3.36c-0.01,0.22,0,0.42,0.02,0.59c0.02,0.17,0.05,0.31,0.1,0.41
		c0.05,0.11,0.12,0.18,0.2,0.22c0.09,0.04,0.2,0.04,0.34,0c0.08-0.02,0.16-0.07,0.25-0.15c0.09-0.07,0.17-0.17,0.25-0.28
		c0.08-0.12,0.15-0.25,0.2-0.4c0.05-0.15,0.08-0.31,0.09-0.49l0.1-3.69L71.71,143.16z"/>
	<path class="st23" d="M72.57,144.65c0.01-0.22,0.04-0.45,0.11-0.69c0.07-0.24,0.17-0.47,0.31-0.69c0.14-0.22,0.31-0.41,0.51-0.59
		c0.2-0.17,0.44-0.3,0.72-0.38c0.27-0.08,0.51-0.1,0.71-0.05c0.2,0.05,0.37,0.14,0.51,0.28c0.14,0.14,0.24,0.32,0.32,0.54
		c0.07,0.22,0.12,0.47,0.14,0.74l-1.09,0.33c-0.02-0.25-0.08-0.42-0.18-0.52c-0.1-0.1-0.25-0.12-0.43-0.07
		c-0.18,0.05-0.31,0.14-0.39,0.27c-0.08,0.13-0.12,0.25-0.12,0.38c0,0.15,0.05,0.24,0.15,0.29c0.11,0.05,0.24,0.08,0.41,0.09
		c0.17,0.02,0.34,0.03,0.53,0.05s0.37,0.07,0.53,0.16c0.16,0.09,0.3,0.23,0.4,0.43s0.15,0.49,0.14,0.85
		c-0.01,0.29-0.06,0.57-0.14,0.84c-0.09,0.27-0.21,0.51-0.36,0.73c-0.15,0.22-0.33,0.4-0.54,0.56c-0.21,0.16-0.44,0.27-0.69,0.35
		c-0.26,0.08-0.49,0.1-0.7,0.06c-0.21-0.04-0.39-0.12-0.54-0.25c-0.15-0.13-0.27-0.31-0.36-0.53s-0.15-0.47-0.17-0.75l1.15-0.35
		c0.02,0.22,0.08,0.38,0.19,0.49c0.11,0.11,0.27,0.14,0.48,0.08c0.2-0.06,0.34-0.16,0.43-0.29c0.09-0.13,0.13-0.26,0.13-0.37
		c0-0.16-0.05-0.27-0.15-0.32c-0.11-0.05-0.24-0.08-0.41-0.1c-0.17-0.01-0.34-0.03-0.53-0.05c-0.19-0.02-0.36-0.08-0.53-0.17
		c-0.16-0.09-0.3-0.24-0.4-0.45C72.61,145.35,72.56,145.05,72.57,144.65z"/>
	<path class="st23" d="M78.97,140.87c0.24-0.07,0.45-0.07,0.62,0.02c0.18,0.08,0.32,0.22,0.44,0.42c0.12,0.2,0.2,0.45,0.25,0.75
		c0.05,0.3,0.07,0.63,0.06,1l-0.1,3.54l-1.1,0.33l0.09-3.36c0.01-0.47-0.03-0.81-0.12-1.02c-0.09-0.21-0.26-0.28-0.52-0.2
		c-0.09,0.03-0.18,0.08-0.27,0.16c-0.09,0.08-0.18,0.18-0.25,0.3c-0.08,0.12-0.14,0.25-0.19,0.4c-0.05,0.15-0.08,0.3-0.08,0.46
		l-0.1,3.69l-1.09,0.33l0.24-8.48l1.09-0.33l-0.08,2.97l0.03-0.01c0.15-0.24,0.32-0.45,0.5-0.62
		C78.57,141.05,78.76,140.93,78.97,140.87z"/>
	<path class="st23" d="M84.93,138.01c-0.1,0.03-0.17,0.08-0.22,0.16c-0.05,0.08-0.09,0.17-0.11,0.28c-0.03,0.11-0.04,0.23-0.05,0.35
		c-0.01,0.12-0.01,0.24-0.01,0.36l0,0.15l0.97-0.29l-0.04,1.38l-0.97,0.29l-0.13,4.67l-1.1,0.33l0.13-4.67l-0.55,0.17l0.04-1.38
		l0.55-0.17l0.01-0.4c0.02-0.66,0.13-1.2,0.35-1.63c0.21-0.43,0.53-0.7,0.95-0.83c0.14-0.04,0.28-0.08,0.41-0.11
		c0.14-0.03,0.28-0.05,0.41-0.06l-0.04,1.28c-0.1,0.02-0.2,0.03-0.3,0.05C85.13,137.96,85.03,137.98,84.93,138.01z"/>
	<path class="st23" d="M87.69,138.26c0.31-0.09,0.58-0.1,0.82-0.01c0.23,0.09,0.43,0.25,0.58,0.48c0.15,0.24,0.26,0.53,0.34,0.89
		c0.07,0.36,0.1,0.76,0.09,1.2c-0.01,0.45-0.07,0.88-0.16,1.29c-0.09,0.4-0.22,0.77-0.39,1.1c-0.17,0.33-0.37,0.61-0.62,0.84
		c-0.24,0.23-0.52,0.39-0.83,0.48c-0.31,0.09-0.58,0.1-0.81,0.01c-0.23-0.08-0.43-0.25-0.58-0.48c-0.15-0.23-0.26-0.53-0.34-0.88
		c-0.07-0.36-0.1-0.76-0.09-1.21c0.01-0.44,0.07-0.87,0.16-1.28c0.09-0.41,0.22-0.78,0.39-1.11c0.17-0.33,0.37-0.61,0.62-0.84
		C87.1,138.51,87.38,138.35,87.69,138.26z M87.55,143.16c0.27-0.08,0.47-0.29,0.62-0.63c0.15-0.34,0.23-0.8,0.24-1.37
		s-0.04-0.99-0.17-1.25c-0.13-0.26-0.33-0.35-0.6-0.27c-0.26,0.08-0.46,0.29-0.61,0.63c-0.15,0.34-0.23,0.8-0.25,1.38
		s0.04,0.99,0.18,1.25C87.1,143.15,87.29,143.24,87.55,143.16z"/>
	<path class="st23" d="M92.24,136.89c0.11-0.03,0.21-0.05,0.32-0.06c0.1-0.01,0.19,0,0.27,0.01l-0.04,1.53
		c-0.08-0.02-0.19-0.03-0.32-0.03c-0.13,0-0.25,0.01-0.36,0.05c-0.21,0.06-0.38,0.22-0.5,0.47c-0.12,0.25-0.19,0.58-0.2,0.99
		l-0.1,3.44l-1.1,0.33l0.17-6.09l0.44-0.13l0.34,0.77l0.03-0.01c0.12-0.32,0.28-0.6,0.46-0.83
		C91.82,137.1,92.02,136.96,92.24,136.89z"/>
	<path class="st23" d="M98.08,133.29l-0.23,8.03l-1.14,0.34l0.17-6.2c-0.2,0.21-0.4,0.41-0.61,0.6c-0.2,0.19-0.41,0.36-0.63,0.52
		l0.04-1.51c0.26-0.23,0.51-0.47,0.75-0.71c0.24-0.24,0.48-0.51,0.72-0.8L98.08,133.29z"/>
	<path class="st23" d="M103.73,133.45c0.11-0.03,0.21-0.05,0.32-0.06c0.1-0.01,0.19,0,0.27,0.01l-0.04,1.53
		c-0.08-0.02-0.19-0.03-0.32-0.03c-0.13,0-0.25,0.01-0.36,0.05c-0.21,0.06-0.38,0.22-0.5,0.47c-0.12,0.25-0.19,0.58-0.2,0.99
		l-0.1,3.44l-1.1,0.33l0.17-6.09l0.44-0.13l0.34,0.77l0.03-0.01c0.12-0.32,0.28-0.6,0.46-0.83
		C103.31,133.66,103.51,133.51,103.73,133.45z"/>
	<path class="st23" d="M106.46,132.63c0.31-0.09,0.58-0.1,0.82-0.01c0.23,0.09,0.43,0.25,0.58,0.48c0.15,0.24,0.26,0.53,0.34,0.89
		c0.07,0.36,0.1,0.76,0.09,1.2c-0.01,0.45-0.07,0.88-0.16,1.29c-0.09,0.4-0.22,0.77-0.39,1.1c-0.17,0.33-0.37,0.61-0.62,0.84
		c-0.24,0.23-0.52,0.39-0.83,0.48c-0.31,0.09-0.58,0.1-0.81,0.01c-0.23-0.08-0.43-0.25-0.58-0.48c-0.15-0.23-0.26-0.53-0.34-0.88
		c-0.07-0.36-0.1-0.76-0.09-1.21c0.01-0.44,0.07-0.87,0.16-1.28c0.09-0.41,0.22-0.78,0.39-1.11c0.17-0.33,0.37-0.61,0.62-0.84
		C105.87,132.88,106.15,132.72,106.46,132.63z M106.32,137.53c0.27-0.08,0.47-0.29,0.62-0.63c0.15-0.34,0.23-0.8,0.24-1.37
		s-0.04-0.99-0.17-1.25c-0.13-0.26-0.33-0.35-0.6-0.27c-0.26,0.08-0.46,0.29-0.61,0.63c-0.15,0.34-0.23,0.8-0.25,1.38
		c-0.02,0.57,0.04,0.99,0.18,1.25C105.87,137.52,106.06,137.61,106.32,137.53z"/>
	<path class="st23" d="M112.71,130.87l-0.17,6.08l-0.44,0.13l-0.33-0.77l-0.03,0.01c-0.17,0.32-0.36,0.61-0.6,0.86
		s-0.48,0.42-0.75,0.5c-0.25,0.07-0.46,0.07-0.64-0.01c-0.18-0.08-0.33-0.22-0.45-0.42c-0.12-0.2-0.21-0.44-0.26-0.74
		c-0.05-0.3-0.07-0.63-0.06-1l0.1-3.55l1.1-0.33l-0.09,3.36c-0.01,0.22,0,0.42,0.02,0.59c0.02,0.17,0.05,0.31,0.1,0.41
		c0.05,0.11,0.12,0.18,0.2,0.22c0.09,0.04,0.2,0.04,0.34,0c0.08-0.02,0.16-0.07,0.25-0.15c0.09-0.07,0.17-0.17,0.25-0.28
		c0.08-0.12,0.15-0.25,0.2-0.4c0.05-0.15,0.08-0.31,0.09-0.49l0.1-3.69L112.71,130.87z"/>
	<path class="st23" d="M115.91,129.79c0.25-0.07,0.46-0.07,0.64,0.01c0.18,0.08,0.33,0.22,0.45,0.42c0.12,0.2,0.2,0.45,0.26,0.75
		c0.05,0.3,0.07,0.63,0.06,1l-0.1,3.54l-1.09,0.33l0.09-3.36c0.01-0.45-0.02-0.78-0.11-1s-0.27-0.3-0.54-0.21
		c-0.08,0.02-0.16,0.07-0.25,0.15c-0.09,0.08-0.17,0.17-0.25,0.29c-0.08,0.11-0.14,0.24-0.2,0.39s-0.08,0.31-0.09,0.49l-0.1,3.69
		l-1.1,0.33l0.17-6.09l0.44-0.13l0.34,0.78l0.03-0.01c0.17-0.32,0.36-0.61,0.6-0.86C115.39,130.04,115.64,129.87,115.91,129.79z"/>
	<path class="st23" d="M118.02,132.28c0.01-0.44,0.06-0.87,0.13-1.27c0.08-0.4,0.19-0.77,0.33-1.09c0.14-0.32,0.31-0.59,0.51-0.81
		c0.2-0.22,0.43-0.36,0.68-0.44c0.22-0.07,0.41-0.07,0.58,0c0.17,0.06,0.31,0.18,0.44,0.35l0.03-0.01l0.08-2.97l1.09-0.33l-0.24,8.5
		l-0.44,0.13l-0.34-0.78l-0.03,0.01c-0.15,0.35-0.33,0.64-0.54,0.87c-0.21,0.23-0.46,0.39-0.74,0.48c-0.27,0.08-0.5,0.07-0.7-0.02
		c-0.2-0.09-0.36-0.26-0.49-0.51c-0.13-0.24-0.22-0.54-0.29-0.9C118.03,133.13,118.01,132.73,118.02,132.28z M119.11,131.95
		c-0.02,0.57,0.04,0.99,0.16,1.25c0.12,0.26,0.31,0.35,0.56,0.28c0.24-0.07,0.44-0.28,0.58-0.62c0.14-0.34,0.22-0.8,0.24-1.37
		c0.02-0.57-0.04-0.99-0.16-1.25c-0.13-0.26-0.31-0.35-0.55-0.28c-0.25,0.08-0.45,0.28-0.59,0.62
		C119.21,130.92,119.13,131.37,119.11,131.95z"/>
	<path class="st23" d="M122.92,131.35c-0.03-0.46-0.06-0.91-0.1-1.36c-0.04-0.45-0.06-0.91-0.08-1.37
		c-0.02-0.44-0.02-0.89-0.02-1.33c0.01-0.44,0.01-0.89,0.03-1.34l0-0.06l1.31-0.39l0,0.04c-0.01,0.44-0.03,0.87-0.05,1.3
		c-0.02,0.43-0.05,0.87-0.09,1.31c-0.05,0.51-0.1,1.01-0.17,1.51s-0.13,1-0.19,1.5L122.92,131.35z M123.85,132.61
		c0.01-0.3-0.05-0.53-0.16-0.69c-0.12-0.16-0.27-0.21-0.45-0.15c-0.18,0.05-0.34,0.2-0.46,0.43c-0.13,0.23-0.2,0.5-0.2,0.8
		c0,0.15,0.01,0.28,0.04,0.4c0.03,0.12,0.07,0.21,0.13,0.29c0.05,0.07,0.12,0.13,0.19,0.16c0.07,0.03,0.16,0.03,0.25,0.01
		c0.18-0.05,0.34-0.2,0.47-0.43C123.77,133.17,123.84,132.91,123.85,132.61z"/>
</g>
</svg>
